<svg xmlns="http://www.w3.org/2000/svg" viewBox="0 0 800 600" fill="none">
  <!-- Background Elements -->
  <rect width="800" height="600" fill="#121628" opacity="0.8"/>
  <circle cx="400" cy="300" r="250" fill="url(#gradientBg)" opacity="0.15"/>
  
  <!-- Growth Chart -->
  <path d="M200 450 L300 350 L400 380 L500 300 L600 200" stroke="url(#gradientLine)" stroke-width="6" stroke-linecap="round" stroke-linejoin="round"/>
  <circle cx="200" cy="450" r="8" fill="#6366F1"/>
  <circle cx="300" cy="350" r="8" fill="#6366F1"/>
  <circle cx="400" cy="380" r="8" fill="#6366F1"/>
  <circle cx="500" cy="300" r="8" fill="#6366F1"/>
  <circle cx="600" cy="200" r="8" fill="#6366F1"/>
  
  <!-- Building/Startup -->
  <rect x="300" y="250" width="200" height="200" rx="10" fill="url(#gradientBuilding)" opacity="0.9"/>
  <rect x="350" y="300" width="40" height="60" rx="4" fill="#1A1E33"/>
  <rect x="410" y="300" width="40" height="60" rx="4" fill="#1A1E33"/>
  <rect x="350" y="380" width="100" height="70" rx="4" fill="#1A1E33"/>
  
  <!-- Investment/Money Symbol -->
  <circle cx="530" cy="350" r="70" fill="url(#moneyGradient)" opacity="0.9"/>
  <path d="M530 310 V390" stroke="#FFFFFF" stroke-width="6" stroke-linecap="round"/>
  <path d="M510 330 Q530 310 550 330" stroke="#FFFFFF" stroke-width="6" stroke-linecap="round"/>
  <path d="M510 370 Q530 390 550 370" stroke="#FFFFFF" stroke-width="6" stroke-linecap="round"/>
  
  <!-- Network Lines -->
  <path d="M270 350 L300 350" stroke="#6366F1" stroke-width="2" stroke-dasharray="5,5"/>
  <path d="M500 300 L530 300" stroke="#6366F1" stroke-width="2" stroke-dasharray="5,5"/>
  <path d="M400 250 L400 200" stroke="#6366F1" stroke-width="2" stroke-dasharray="5,5"/>
  
  <!-- Gradients -->
  <defs>
    <linearGradient id="gradientBg" x1="0%" y1="0%" x2="100%" y2="100%">
      <stop offset="0%" stop-color="#6366F1" stop-opacity="0.7"/>
      <stop offset="100%" stop-color="#EF4444" stop-opacity="0.7"/>
    </linearGradient>
    
    <linearGradient id="gradientLine" x1="0%" y1="0%" x2="100%" y2="0%">
      <stop offset="0%" stop-color="#EF4444"/>
      <stop offset="100%" stop-color="#6366F1"/>
    </linearGradient>
    
    <linearGradient id="gradientBuilding" x1="0%" y1="0%" x2="100%" y2="100%">
      <stop offset="0%" stop-color="#3B82F6" stop-opacity="0.8"/>
      <stop offset="100%" stop-color="#6366F1" stop-opacity="0.8"/>
    </linearGradient>
    
    <linearGradient id="moneyGradient" x1="0%" y1="0%" x2="100%" y2="100%">
      <stop offset="0%" stop-color="#10B981" stop-opacity="0.8"/>
      <stop offset="100%" stop-color="#6366F1" stop-opacity="0.8"/>
    </linearGradient>
  </defs>
</svg>
