<svg class="animated" id="freepik_stories-online-resume" xmlns="http://www.w3.org/2000/svg" viewBox="0 0 750 500" version="1.1" xmlns:xlink="http://www.w3.org/1999/xlink" xmlns:svgjs="http://svgjs.com/svgjs"><style>svg#freepik_stories-online-resume:not(.animated) .animable {opacity: 0;}svg#freepik_stories-online-resume.animated #freepik--Resume--inject-62 {animation: 1.5s Infinite  linear floating;animation-delay: 0s;}svg#freepik_stories-online-resume.animated #freepik--character-2--inject-62 {animation: 1.5s Infinite  linear floating;animation-delay: 0s;}            @keyframes floating {                0% {                    opacity: 1;                    transform: translateY(0px);                }                50% {                    transform: translateY(-10px);                }                100% {                    opacity: 1;                    transform: translateY(0px);                }            }        .animator-hidden { display: none; }</style><g id="freepik--background-complete--inject-62" class="animable" style="transform-origin: 387.287px 254.87px;"><path d="M716.76,319.14l-5.1-9a24,24,0,1,0-5.76,6.41h0Z" style="fill: rgb(235, 235, 235); transform-origin: 691.989px 297.564px;" id="el5v4qp598td" class="animable"></path><path d="M191,52.26a9.86,9.86,0,0,0,5.88-9.12c0-5.45-4.11-9.88-9.21-9.91s-9.27,4.38-9.29,9.82a9.84,9.84,0,0,0,5.89,9.21c-14.24,2.15-13.59,17.62-13.59,17.62l33.66.15S205.15,54.4,191,52.26Z" style="fill: rgb(235, 235, 235); transform-origin: 187.512px 51.6299px;" id="elnvu378rrfme" class="animable"></path><path d="M85.54,378.44a35,35,0,0,0-15-5.15c-2.44-.25-5.12-.18-7.08,1.3a1.47,1.47,0,0,0-.73,1.29,1.6,1.6,0,0,0,.7.89c6.09,4.64,15.3,5.23,22.09,1.67" style="fill: rgb(224, 224, 224); transform-origin: 74.1349px 376.959px;" id="elg7mspbfh39j" class="animable"></path><path d="M85.15,378a73.26,73.26,0,0,1-9.67-8.51,24.49,24.49,0,0,1-6.06-11.21,4.54,4.54,0,0,1,.48-3.76c7.71,6,13.76,13.81,15.25,23.48" style="fill: rgb(224, 224, 224); transform-origin: 77.1811px 366.26px;" id="elldhatyes0ii" class="animable"></path><path d="M85.46,378.38a34.91,34.91,0,0,1,.18-12.69,17.15,17.15,0,0,1,6.76-10.48c1.33,3.11.76,6.7-.18,10a48.35,48.35,0,0,1-6.7,14.12" style="fill: rgb(224, 224, 224); transform-origin: 89.0743px 367.27px;" id="elwfswm1mibm" class="animable"></path><path d="M93,391.92c-4.58.56-8.58,3-12,6.08a22.69,22.69,0,0,0-6.87,11.79c4.5-.28,8.32-3.45,11.08-7S89.91,395.32,93,392" style="fill: rgb(224, 224, 224); transform-origin: 83.565px 400.855px;" id="elessaenryiln" class="animable"></path><path d="M94.66,394.09a29.58,29.58,0,0,1,3.42-28c2.61,9.29,1.65,19.79-3.42,28" style="fill: rgb(224, 224, 224); transform-origin: 96.0425px 380.09px;" id="elzcw5wz0nr7" class="animable"></path><path d="M104.64,406a21.42,21.42,0,0,0-20.48,11.78c-.25.51-.47,1.16-.13,1.61a1.52,1.52,0,0,0,1.35.4c4-.26,7.62-2.69,10.57-5.45s5.52-6,8.78-8.35" style="fill: rgb(224, 224, 224); transform-origin: 94.2929px 412.888px;" id="elznzzqvdmveb" class="animable"></path><path d="M104.32,405.33a38.11,38.11,0,0,1-.38-21.3c.75-2.75,2-5.63,4.55-6.92a.86.86,0,0,1,.69-.12.89.89,0,0,1,.44.51,12.75,12.75,0,0,1,1.07,6.11,38.27,38.27,0,0,1-1,6.19c-.8,3.78-1.23,7.84-3.3,11.1a23,23,0,0,0-1.32,2.44c-.39.83-.39,1.12-.75,1.78" style="fill: rgb(224, 224, 224); transform-origin: 106.664px 391.147px;" id="elpqv5yqhip5q" class="animable"></path><path d="M130.75,409.27c-2-7.45.12-16.48,4.82-22.59.34-.45.8-.93,1.36-.88.87.08,1.09,1.24,1,2.1a40.77,40.77,0,0,1-7.23,21.37" style="fill: rgb(224, 224, 224); transform-origin: 133.973px 397.533px;" id="elonup6g6a83" class="animable"></path><path d="M133.13,410.9c9.05,2.35,19.44.06,27-5.49a21.85,21.85,0,0,0-14.59-1.79c-4.88,1.12-9.33,3.3-12.37,7.28" style="fill: rgb(224, 224, 224); transform-origin: 146.63px 407.453px;" id="elfykzkdzgh0j" class="animable"></path><path d="M135.14,405.94c5.07-8.27,14.79-13.66,24.47-14.15-1.12,3.94-4.35,7-8,8.85s-7.73,2.65-11.75,3.43c-1.56.31-3.7.64-4.72,1.87" style="fill: rgb(224, 224, 224); transform-origin: 147.375px 398.865px;" id="ele23kj05g91r" class="animable"></path><path d="M131.26,381.87a70.65,70.65,0,0,0,3.12-14.33c.38-4.88-.31-10-2.85-14.17-4.73,9.16-5.21,19.87-.42,29" style="fill: rgb(224, 224, 224); transform-origin: 131.11px 367.87px;" id="ela33umoy7lx" class="animable"></path><path d="M147.19,373.82c5.54-10.07,16.84-18.1,28.26-19.23-4.4,11-16.43,19.46-28.26,19.23" style="fill: rgb(224, 224, 224); transform-origin: 161.32px 364.207px;" id="elqnfx5wpatvq" class="animable"></path><path d="M143.71,375.79c8.26,1.26,15.29,6.53,23,9.73a10.36,10.36,0,0,0,5.2,1,4.07,4.07,0,0,0,2.55-7.2,11.14,11.14,0,0,0-3.78-2.29c-8.4-3.5-17.42-3.59-26.27-1.47" style="fill: rgb(224, 224, 224); transform-origin: 159.819px 380.345px;" id="elcrc3jssdlkn" class="animable"></path><path d="M138.93,381.58c1.87.53,2.51,1.5,4,2.76a43.13,43.13,0,0,0,17.45,9c.66.16,1.54.23,1.87-.38s-.08-1.16-.45-1.63a24.05,24.05,0,0,0-10.54-7.15c-4-1.5-7.51-3.3-12.32-2.92" style="fill: rgb(224, 224, 224); transform-origin: 150.651px 387.33px;" id="ele64bk5tmlgf" class="animable"></path><path d="M133.54,346.6a33,33,0,0,0,25.31,8.62,1.76,1.76,0,0,0,1.16-.42c.63-.69-.13-1.76-.87-2.34-7.44-5.8-16.46-8.21-25.6-5.86" style="fill: rgb(224, 224, 224); transform-origin: 146.892px 350.529px;" id="elawl5y3yppof" class="animable"></path><path d="M139.93,344.26a35.3,35.3,0,0,1,31.59-5.21,25.1,25.1,0,0,1-15.05,6.61,47.59,47.59,0,0,1-16.54-1.4" style="fill: rgb(224, 224, 224); transform-origin: 155.725px 341.627px;" id="el4miz83ofeq6" class="animable"></path><path d="M137.39,328.19c-.73-7.43-.25-13.29-.77-20.75,0-.6-.17-1.32-.73-1.53-.77-.3-1.42.65-1.67,1.45A23.76,23.76,0,0,0,137.38,328" style="fill: rgb(224, 224, 224); transform-origin: 135.264px 317.022px;" id="eltf3a1to9e9f" class="animable"></path><path d="M136.86,329a43.63,43.63,0,0,0,12.3-12c2.43-3.32,4.48-7.31,3.93-11.39a11.8,11.8,0,0,0-8.88,4.41,25,25,0,0,0-4.52,9.1c-1,3.27-1.67,6.63-2.83,9.84" style="fill: rgb(224, 224, 224); transform-origin: 145.02px 317.305px;" id="eluumta0io3c" class="animable"></path><path d="M149,325.65a99,99,0,0,0,30.28-17.85c-3.62-1.46-7.76-.59-11.37.87-8.27,3.34-15,9-19.07,16.9" style="fill: rgb(224, 224, 224); transform-origin: 164.06px 316.349px;" id="eluefv50rapsh" class="animable"></path><path d="M140.26,333.08c5.59.61,11.27,1,16.81.08s10.61-3.07,15.7-5.22a1.84,1.84,0,0,0,1.07-.81,1.24,1.24,0,0,0-.38-1.34,3.38,3.38,0,0,0-1.34-.63c-5.54-1.55-11.52-.82-17,1a78.26,78.26,0,0,0-14.89,6.9" style="fill: rgb(224, 224, 224); transform-origin: 157.066px 329.011px;" id="el8sp6dk7ld14" class="animable"></path><path d="M108.34,346.86c-3.82-7.7-3.57-16.68-.27-24.62,2.32,3.53,2.6,8,2.17,12.24s-1.7,8.53-1.78,12.76" style="fill: rgb(224, 224, 224); transform-origin: 107.972px 334.74px;" id="elb8hks8cp4as" class="animable"></path><path d="M93.1,339.17A34.34,34.34,0,0,0,67.59,350c4.75.75,9.65-.48,14-2.59a71.22,71.22,0,0,0,12-8" style="fill: rgb(224, 224, 224); transform-origin: 80.59px 344.694px;" id="elgnvyofk80b" class="animable"></path><path d="M82.86,335.75c-4.66-.38-9.14-1-13.62.42s-8.56,4.48-10.38,8.8a24.65,24.65,0,0,0,12.77-2.41,74,74,0,0,0,11.23-6.81" style="fill: rgb(224, 224, 224); transform-origin: 70.86px 340.166px;" id="el919zk8yedrk" class="animable"></path><path d="M98,335.9c-4.2-2.74-8.5-5.54-13.38-6.68s-10.53-.29-13.93,3.39c3.94,2.31,8.74,2.59,13.32,2.58s10.19-.05,14.51,1.48" style="fill: rgb(224, 224, 224); transform-origin: 84.605px 332.709px;" id="elgvb3rrrmxzl" class="animable"></path><path d="M98.05,336.13c-7.16-7-9.88-19.68-7-29.3a44.64,44.64,0,0,1,7,29.3" style="fill: rgb(224, 224, 224); transform-origin: 94.1184px 321.48px;" id="el7jmhfy2wlth" class="animable"></path><path d="M117.75,316.19c1.35-3.14,2.3-6.44,3.51-9.63a27.87,27.87,0,0,1,5-8.89,13.23,13.23,0,0,1,8.88-4.59,35.72,35.72,0,0,1-17.22,23.16" style="fill: rgb(224, 224, 224); transform-origin: 126.445px 304.66px;" id="elh2lbm2sshzt" class="animable"></path><path d="M114.19,320.35c-2.24-3.08-4.82-7.26-7.86-9.56s-7-3.68-10.68-2.8a24.9,24.9,0,0,0,18.54,12.36" style="fill: rgb(224, 224, 224); transform-origin: 104.92px 314.036px;" id="eln1evkaildc" class="animable"></path><path d="M114.9,316.45A53.42,53.42,0,0,1,111.36,305a17.85,17.85,0,0,1,1.8-11.64c3.93,7.44,5.2,15.42,1.94,23.17" style="fill: rgb(224, 224, 224); transform-origin: 114.01px 304.945px;" id="eleph83cdruzu" class="animable"></path><path d="M117.79,293.36c2.22-7.37,9-12.79,16.26-15.28a6,6,0,0,1,2.85-.43,2.48,2.48,0,0,1,2.1,1.76c.27,1.25-.77,2.37-1.74,3.21a55.37,55.37,0,0,1-19.47,10.74" style="fill: rgb(224, 224, 224); transform-origin: 128.417px 285.492px;" id="ellbi85p4q93" class="animable"></path><path d="M117.87,287.34c.28-4.75.58-9.57,2.12-14.08s4.53-8.72,8.86-10.69c.74,4.8-1.38,9.57-3.93,13.7s-5.64,8-7.17,12.63" style="fill: rgb(224, 224, 224); transform-origin: 123.375px 275.735px;" id="elylzjav6hpvn" class="animable"></path><path d="M117.75,290.61c-1.84-5.37-2-12.19-5.25-16.87-2.25-3.27-5.85-5.5-7.78-9a13.61,13.61,0,0,0,.45,10.18,29.68,29.68,0,0,0,6,8.52c2.38,2.54,4.42,4.45,6.63,7.14" style="fill: rgb(224, 224, 224); transform-origin: 110.872px 277.675px;" id="elhg7gowap5re" class="animable"></path><path d="M117.79,448.78c-.15,0-.27-35.83-.28-80s.1-80,.24-80,.27,35.82.28,80S117.93,448.78,117.79,448.78Z" style="fill: rgb(224, 224, 224); transform-origin: 117.77px 368.78px;" id="ela74062x5fof" class="animable"></path><path d="M149.1,341.45a7.51,7.51,0,0,1-1.35.51L144,343.21c-3.12,1.06-7.42,2.6-12.08,4.51s-9,3.59-11.44,5.74a8.42,8.42,0,0,0-2.3,3c-.36.84-.42,1.36-.47,1.35s0-.13,0-.38a5.52,5.52,0,0,1,.26-1,8,8,0,0,1,2.24-3.24,20.08,20.08,0,0,1,5-3.09c2-.93,4.19-1.89,6.53-2.85,4.67-1.92,9-3.41,12.16-4.39,1.58-.49,2.87-.86,3.76-1.1A8.52,8.52,0,0,1,149.1,341.45Z" style="fill: rgb(224, 224, 224); transform-origin: 133.394px 349.63px;" id="elmwkr0vh15s9" class="animable"></path><path d="M159.36,316.24s-.12.15-.38.41l-1.15,1.08-4.29,3.89-14.29,12.72c-5.57,5-10.39,9.71-13.73,13.28-1.67,1.79-3,3.26-3.89,4.29l-1,1.19a2.44,2.44,0,0,1-.38.39,1.93,1.93,0,0,1,.3-.46c.22-.28.54-.71,1-1.25.85-1.07,2.13-2.59,3.77-4.41A180.79,180.79,0,0,1,138.91,334c5.6-4.95,10.69-9.4,14.39-12.61l4.4-3.78,1.21-1A2.36,2.36,0,0,1,159.36,316.24Z" style="fill: rgb(224, 224, 224); transform-origin: 139.805px 334.865px;" id="el02lb8930jnkk" class="animable"></path><path d="M133.23,339.39c-.14-.06,1-2.75,2.18-6.15s1.73-6.28,1.88-6.25a21.22,21.22,0,0,1-1.39,6.41,41.07,41.07,0,0,1-1.73,4.31A6.42,6.42,0,0,1,133.23,339.39Z" style="fill: rgb(224, 224, 224); transform-origin: 135.254px 333.19px;" id="elmx8j9385hon" class="animable"></path><path d="M117.82,361.08a7,7,0,0,1-.86-1l-2.2-2.82c-1.85-2.39-4.41-5.69-7.27-9.3s-5.5-6.85-7.41-9.2L97.83,336a7,7,0,0,1-.78-1.06,5.73,5.73,0,0,1,.93.93c.58.62,1.39,1.54,2.38,2.68,2,2.28,4.66,5.49,7.53,9.11s5.39,6.95,7.16,9.4c.89,1.22,1.6,2.22,2.07,2.92A6.22,6.22,0,0,1,117.82,361.08Z" style="fill: rgb(224, 224, 224); transform-origin: 107.435px 348.01px;" id="el4pzps7z85mw" class="animable"></path><path d="M111,352.26a12.69,12.69,0,0,1-2.87-5.38,15.27,15.27,0,0,1-.65-5.43l.22,0q-.15.63-.21.63s0-.24,0-.67l.23,0a24.84,24.84,0,0,0,.91,5.28A40.19,40.19,0,0,0,111,352.26Z" style="fill: rgb(224, 224, 224); transform-origin: 109.226px 346.835px;" id="elb97vhfmk20m" class="animable"></path><path d="M102.09,341.12a8.76,8.76,0,0,0-2-1.17,13.39,13.39,0,0,0-5.57-.44,34.09,34.09,0,0,0-5.62.9,18,18,0,0,1-2.31.56,7.82,7.82,0,0,1,2.22-.91A25.35,25.35,0,0,1,94.47,339a12.22,12.22,0,0,1,5.75.62A3.45,3.45,0,0,1,102.09,341.12Z" style="fill: rgb(224, 224, 224); transform-origin: 94.34px 340.007px;" id="elbf7ziq4qpx" class="animable"></path><path d="M100,338.41c0,.08-1.17-.47-3.08-1.12a32,32,0,0,0-7.67-1.58,31.6,31.6,0,0,0-7.83.4c-2,.36-3.18.73-3.21.64a3.43,3.43,0,0,1,.82-.35,21.48,21.48,0,0,1,2.32-.65A27.44,27.44,0,0,1,97,337a18.33,18.33,0,0,1,2.2,1A3,3,0,0,1,100,338.41Z" style="fill: rgb(224, 224, 224); transform-origin: 89.105px 336.781px;" id="elngv33bbyan" class="animable"></path><path d="M117.75,327a64.32,64.32,0,0,1-2.24-7.8,63.1,63.1,0,0,1-1.74-7.92,66.55,66.55,0,0,1,2.24,7.8A63.1,63.1,0,0,1,117.75,327Z" style="fill: rgb(224, 224, 224); transform-origin: 115.76px 319.14px;" id="eldjjgyy3wzw8" class="animable"></path><path d="M117.89,327a37.63,37.63,0,0,0-2.48-4.67,21.25,21.25,0,0,0-3.66-3.78,3.57,3.57,0,0,1,1.41.73,11.52,11.52,0,0,1,2.67,2.75A10.31,10.31,0,0,1,117.89,327Z" style="fill: rgb(224, 224, 224); transform-origin: 114.82px 322.775px;" id="elwezw9aaxqro" class="animable"></path><path d="M117.79,429.68c-.06,0-.16-.87-.57-2.39a34.11,34.11,0,0,0-2.39-6.2c-2.48-5.06-7-11.47-12.71-17.9C99.29,400,96.54,396.9,94.2,394a64.26,64.26,0,0,1-5.66-8.17,38.53,38.53,0,0,1-2.86-6.07c-.27-.74-.46-1.33-.57-1.73a2.54,2.54,0,0,1-.14-.62s.3.82.89,2.28a44.19,44.19,0,0,0,3,5.95,69,69,0,0,0,5.72,8.06c2.35,2.9,5.1,5.94,7.94,9.18,5.74,6.44,10.24,12.94,12.65,18.08a31.2,31.2,0,0,1,2.26,6.31c.16.78.27,1.39.31,1.8A3.37,3.37,0,0,1,117.79,429.68Z" style="fill: rgb(224, 224, 224); transform-origin: 101.38px 403.545px;" id="el37gdh530flk" class="animable"></path><path d="M146.08,397.72a13.29,13.29,0,0,1-1.48.83,34.17,34.17,0,0,0-3.85,2.54,43.9,43.9,0,0,0-5.05,4.61c-1.77,1.87-3.6,4.05-5.46,6.38-3.73,4.67-7.22,8.81-9.3,12.11-1.06,1.64-1.83,3-2.34,4s-.78,1.51-.81,1.5a1.25,1.25,0,0,1,.13-.42c.11-.27.26-.67.5-1.17a36.87,36.87,0,0,1,2.21-4.09c2-3.38,5.48-7.58,9.2-12.25,1.87-2.33,3.72-4.51,5.52-6.38a41,41,0,0,1,5.18-4.57,28,28,0,0,1,4-2.43c.49-.24.9-.4,1.16-.51S146.07,397.7,146.08,397.72Z" style="fill: rgb(224, 224, 224); transform-origin: 131.935px 413.703px;" id="eljkix4dc20j" class="animable"></path><path d="M146.63,408.09a22,22,0,0,1-3.13.45,40.66,40.66,0,0,0-7.43,1.47,22.19,22.19,0,0,0-6.66,3.49c-1.53,1.18-2.26,2.16-2.33,2.11a2.5,2.5,0,0,1,.47-.72,11.56,11.56,0,0,1,1.63-1.68,20.29,20.29,0,0,1,6.73-3.7,33.69,33.69,0,0,1,7.55-1.33A17.08,17.08,0,0,1,146.63,408.09Z" style="fill: rgb(224, 224, 224); transform-origin: 136.855px 411.833px;" id="eliq2dpydbi4t" class="animable"></path><path d="M128,414.47c-.17-.09,1.25-2.25,2.34-5.15s1.27-5.5,1.45-5.47a4.71,4.71,0,0,1,0,1.68,18,18,0,0,1-.91,4,19.44,19.44,0,0,1-1.82,3.64A5.55,5.55,0,0,1,128,414.47Z" style="fill: rgb(224, 224, 224); transform-origin: 129.926px 409.16px;" id="elhengaaydo3g" class="animable"></path><path d="M155.24,369.89a2.79,2.79,0,0,1-.5.26l-1.47.67c-.65.28-1.43.63-2.31,1.1s-1.92.92-3,1.57l-1.71,1c-.59.34-1.18.75-1.8,1.14-1.26.76-2.52,1.7-3.87,2.66a74.16,74.16,0,0,0-8.08,7.11,72.35,72.35,0,0,0-6.83,8.32c-.91,1.38-1.81,2.68-2.53,4-.37.64-.76,1.24-1.08,1.84s-.62,1.19-.91,1.75c-.61,1.09-1,2.14-1.47,3s-.76,1.69-1,2.35l-.62,1.49a2.2,2.2,0,0,1-.25.51,1.91,1.91,0,0,1,.15-.54c.14-.41.31-.91.53-1.53a24.19,24.19,0,0,1,.93-2.39c.41-.92.82-2,1.41-3.1.29-.56.58-1.15.89-1.77s.69-1.22,1.06-1.87c.71-1.3,1.6-2.61,2.51-4a64.18,64.18,0,0,1,15-15.54c1.37-1,2.65-1.89,3.93-2.65.63-.38,1.23-.78,1.83-1.11l1.74-.95c1.09-.63,2.14-1.08,3-1.52s1.7-.76,2.36-1l1.51-.58A2.12,2.12,0,0,1,155.24,369.89Z" style="fill: rgb(224, 224, 224); transform-origin: 136.525px 389.275px;" id="eletpc1qkijnh" class="animable"></path><path d="M132.85,384.89a3.5,3.5,0,0,1,1.23-1.83,7.77,7.77,0,0,1,5-1.91,13.66,13.66,0,0,1,5.22,1,7.66,7.66,0,0,1,2,1,12.32,12.32,0,0,1-2.1-.61,15.59,15.59,0,0,0-5.08-.85,8,8,0,0,0-4.74,1.66A13.89,13.89,0,0,0,132.85,384.89Z" style="fill: rgb(224, 224, 224); transform-origin: 139.575px 383.02px;" id="elgeksxzodpy5" class="animable"></path><path d="M129.5,388.34a18.64,18.64,0,0,0,1.41-4.58,19.13,19.13,0,0,0-.31-4.79,3.34,3.34,0,0,1,.58,1.34,9.47,9.47,0,0,1-.8,6.87C129.94,388,129.55,388.38,129.5,388.34Z" style="fill: rgb(224, 224, 224); transform-origin: 130.497px 383.656px;" id="elyumswzcfook" class="animable"></path><path d="M93,434.81c.77,13.69,4.9,27.62,11.25,41.7h27.59c6.06-13.94,9.9-27.85,10.58-41.7Z" style="fill: rgb(224, 224, 224); transform-origin: 117.71px 455.66px;" id="el689q5q0o0s" class="animable"></path><path d="M138,457c0,.14-9.09.25-20.3.25S97.4,457.11,97.4,457s9.08-.26,20.29-.26S138,456.82,138,457Z" style="fill: rgb(250, 250, 250); transform-origin: 117.7px 456.995px;" id="eloeevakfp4g" class="animable"></path><path d="M137.37,461.93c0,.14-8.52.26-19,.26s-19-.12-19-.26,8.52-.26,19-.26S137.37,461.78,137.37,461.93Z" style="fill: rgb(250, 250, 250); transform-origin: 118.37px 461.93px;" id="eltyh6i94lah" class="animable"></path><path d="M104.73,443.8a77.8,77.8,0,0,1,0,12.71,77.8,77.8,0,0,1,0-12.71Z" style="fill: rgb(250, 250, 250); transform-origin: 104.73px 450.155px;" id="elp2o70pp9l2k" class="animable"></path><path d="M119.52,443.8a83.52,83.52,0,0,1,0,13.17,83.52,83.52,0,0,1,0-13.17Z" style="fill: rgb(250, 250, 250); transform-origin: 119.52px 450.385px;" id="elsjued3o7u2k" class="animable"></path><path d="M133.4,443.69a86.84,86.84,0,0,1,0,13.43,86.84,86.84,0,0,1,0-13.43Z" style="fill: rgb(250, 250, 250); transform-origin: 133.4px 450.405px;" id="elvxvl4nblo0b" class="animable"></path><path d="M141.58,443.8c0,.14-10.65.26-23.8.26S94,443.94,94,443.8s10.65-.26,23.8-.26S141.58,443.66,141.58,443.8Z" style="fill: rgb(250, 250, 250); transform-origin: 117.79px 443.8px;" id="elpwk7nwpokne" class="animable"></path><path d="M676.25,61.32a25.82,25.82,0,1,0-48.08,13.05h0l.07.09c1,1.67,2.23,2.87,3.49,4.62l15,19.86a4.66,4.66,0,0,0,7.44,0l14.74-19.53a55.18,55.18,0,0,0,3.75-5l.06-.07h0A25.67,25.67,0,0,0,676.25,61.32ZM650.43,72.56A11.36,11.36,0,1,1,661.79,61.2,11.35,11.35,0,0,1,650.43,72.56Z" style="fill: rgb(245, 245, 245); transform-origin: 650.43px 68.1302px;" id="elhggzvwi5gli" class="animable"></path><g id="elaxu0dvlsh59"><rect x="65.77" y="151.19" width="99.99" height="96.73" style="fill: rgb(245, 245, 245); transform-origin: 115.765px 199.555px; transform: rotate(-9.99deg);" class="animable" id="elvk76nz2vto"></rect></g><polygon points="81.11 246.36 99.72 192.54 127.52 219.95 138.12 200.93 164.31 231.71 81.11 246.36" style="fill: rgb(224, 224, 224); transform-origin: 122.71px 219.45px;" id="elhrglkwnbarp" class="animable"></polygon><path d="M129.81,177.41a7.19,7.19,0,1,1-8.33-5.84A7.2,7.2,0,0,1,129.81,177.41Z" style="fill: rgb(224, 224, 224); transform-origin: 122.728px 178.652px;" id="el6o86darayue" class="animable"></path><g id="elzxbhm8c19pa"><g style="opacity: 0.3; transform-origin: 115.493px 199.53px;" class="animable" id="elchuowhmmoyq"><path d="M164.36,232a2.58,2.58,0,0,1-.1-.38c0-.29-.12-.65-.21-1.11-.19-1-.46-2.44-.8-4.28l-3-16.16c-2.5-13.91-6.06-33.71-10.33-57.49l.47.34L67.25,167.6l.38-.54v.07l0,.08,0,.17.06.34.12.68.23,1.36.48,2.7c.32,1.81.63,3.6,1,5.38q.94,5.35,1.86,10.61c1.23,7,2.43,13.86,3.61,20.53,2.33,13.35,4.53,26,6.56,37.57l-.48-.34,60.2-10.38,17-2.88,4.51-.75,1.17-.18.42-.05a1.56,1.56,0,0,1-.36.09l-1.12.22-4.41.83-16.86,3.08L81.23,247l-.41.08-.07-.42c-2.06-11.6-4.3-24.21-6.66-37.55l-3.63-20.53q-.93-5.25-1.87-10.6-.47-2.69-1-5.38l-.47-2.71-.24-1.35-.12-.68-.06-.34,0-.17,0-.09v-.06c-.34.48.47-.69.4-.57l83.2-14.58.4-.07.07.4c4.13,23.92,7.56,43.83,10,57.82,1.17,6.9,2.09,12.34,2.73,16.1.3,1.82.53,3.23.69,4.22.07.45.13.8.17,1.07A2.59,2.59,0,0,1,164.36,232Z" style="fill: rgb(224, 224, 224); transform-origin: 115.493px 199.53px;" id="elvsk29rb39x" class="animable"></path></g></g><g id="elyvhtz5hzif"><rect x="70.41" y="54.98" width="38.93" height="57.76" style="fill: rgb(245, 245, 245); transform-origin: 89.875px 83.86px; transform: rotate(-79.01deg);" class="animable" id="elowy1xvyvtyp"></rect></g><path d="M122,70.75a3.46,3.46,0,0,1-.63.41l-1.85,1.08-6.84,3.87L90,88.77l-.19.1-.14-.16-.34-.4-17-20.13L67.15,62l-1.37-1.69a5.57,5.57,0,0,1-.46-.61,3.51,3.51,0,0,1,.54.54L67.3,61.9l5.25,6L89.7,88l.34.4-.33-.06,22.82-12.52,6.93-3.73,1.89-1A5.76,5.76,0,0,1,122,70.75Z" style="fill: rgb(224, 224, 224); transform-origin: 93.66px 74.285px;" id="el0sxyx4y41wpl" class="animable"></path><path d="M57.9,98c-.09-.11,5.19-4.52,11.8-9.85s12-9.56,12.12-9.45S76.63,83.19,70,88.52,58,98.07,57.9,98Z" style="fill: rgb(224, 224, 224); transform-origin: 69.8604px 88.3494px;" id="elz2qssqd1muk" class="animable"></path><path d="M100.76,81.85c.13-.07,3.34,6,7.16,13.44s6.81,13.62,6.68,13.68-3.33-6-7.15-13.44S100.63,81.91,100.76,81.85Z" style="fill: rgb(224, 224, 224); transform-origin: 107.68px 95.4099px;" id="elxjqzez9csq8" class="animable"></path><path d="M674,238,618.4,218.54a7.37,7.37,0,0,1-4.53-9.39l26.93-76.94a7.37,7.37,0,0,1,9.39-4.53L685.44,140l17.45,37.68-19.51,55.77A7.37,7.37,0,0,1,674,238Z" style="fill: rgb(235, 235, 235); transform-origin: 658.174px 182.837px;" id="elp5hcapcsgp" class="animable"></path><path d="M685.44,140l-7.57,21.66a6.85,6.85,0,0,0,4.2,8.73l20.82,7.29Z" style="fill: rgb(245, 245, 245); transform-origin: 690.187px 158.84px;" id="elzcqmxi5j1gm" class="animable"></path><path d="M677.49,163.68s-2.12,5.15,3.26,9a6.65,6.65,0,0,0,.63.39c2.55,1.44,19.33,10.89,19.48,10.48s2-5.82,2-5.82l-20.82-7.29S676.93,168.41,677.49,163.68Z" style="fill: rgb(224, 224, 224); transform-origin: 689.969px 173.621px;" id="el0xotb12jav1f" class="animable"></path><path d="M673.51,159.16c-.09.28-5.93-1.51-13-4s-12.78-4.72-12.68-5,5.93,1.51,13,4S673.61,158.88,673.51,159.16Z" style="fill: rgb(250, 250, 250); transform-origin: 660.67px 154.66px;" id="elzx763w0ix2t" class="animable"></path><path d="M685.84,177.22c-.1.27-9.65-2.82-21.34-6.9s-21.09-7.64-21-7.91,9.65,2.81,21.34,6.9S685.94,176.94,685.84,177.22Z" style="fill: rgb(250, 250, 250); transform-origin: 664.67px 169.815px;" id="elbs27zuqucmc" class="animable"></path><path d="M686.08,188.78c-.1.27-10.51-3.12-23.25-7.57s-23-8.3-22.9-8.58,10.51,3.11,23.25,7.57S686.17,188.5,686.08,188.78Z" style="fill: rgb(250, 250, 250); transform-origin: 663.005px 180.704px;" id="el1ak6l6gh8el" class="animable"></path><path d="M682.7,198.42c-.1.28-10.51-3.11-23.25-7.57s-23-8.3-22.89-8.57,10.5,3.11,23.25,7.57S682.8,198.14,682.7,198.42Z" style="fill: rgb(250, 250, 250); transform-origin: 659.63px 190.351px;" id="elffe72u7tpls" class="animable"></path><path d="M679.32,208.07c-.09.28-10.5-3.11-23.24-7.57s-23-8.3-22.9-8.58,10.51,3.11,23.25,7.57S679.42,207.79,679.32,208.07Z" style="fill: rgb(250, 250, 250); transform-origin: 656.25px 199.995px;" id="elugrcif6he9c" class="animable"></path><path d="M676,217.71c-.1.28-10.51-3.11-23.25-7.56s-23-8.3-22.89-8.58,10.5,3.11,23.25,7.57S676.05,217.44,676,217.71Z" style="fill: rgb(250, 250, 250); transform-origin: 652.93px 209.64px;" id="elpt5ze29q0u8" class="animable"></path><path d="M656.49,389a20.87,20.87,0,0,1,5-2.18l1-5,8.39-.15,1.21,4.93a20.49,20.49,0,0,1,5.09,2l4.25-2.78,6,5.83-2.62,4.34a20.87,20.87,0,0,1,2.18,5l5,1,.15,8.39-4.93,1.21a20.49,20.49,0,0,1-2,5.09l2.78,4.24-5.83,6-4.34-2.63a20.51,20.51,0,0,1-5,2.19l-1,5-8.39.15-1.21-4.93a20.49,20.49,0,0,1-5.09-2l-4.25,2.78-6-5.83,2.63-4.34a20.68,20.68,0,0,1-2.19-5l-5-1-.15-8.39,4.93-1.21a20.49,20.49,0,0,1,2-5.09l-2.78-4.25,5.83-6,4.34,2.62ZM661,400.23a9,9,0,1,0,12.73-.23A9,9,0,0,0,661,400.23Z" style="fill: rgb(245, 245, 245); transform-origin: 667.155px 406.65px;" id="elute0ke8v0we" class="animable"></path><path d="M519.75,61a22.82,22.82,0,0,1,5.54-2.41l1.15-5.48,9.27-.17L537,58.4a22.73,22.73,0,0,1,5.63,2.21l4.68-3.07L554,64l-2.9,4.79a22.72,22.72,0,0,1,2.41,5.55L559,75.46l.16,9.27-5.45,1.33a22.2,22.2,0,0,1-2.21,5.63l3.07,4.68-6.44,6.68-4.79-2.91a22.82,22.82,0,0,1-5.54,2.41L536.67,108l-9.27.16-1.33-5.44a22.76,22.76,0,0,1-5.63-2.22l-4.68,3.07-6.67-6.44,2.9-4.79a22.82,22.82,0,0,1-2.41-5.54L504.1,85.7l-.17-9.27,5.45-1.34a22.13,22.13,0,0,1,2.21-5.62l-3.07-4.69L515,58.11l4.79,2.9Zm4.94,12.35a9.95,9.95,0,1,0,14.07-.24A10,10,0,0,0,524.69,73.36Z" style="fill: rgb(224, 224, 224); transform-origin: 531.545px 80.55px;" id="elx20slf80r7c" class="animable"></path></g><g id="freepik--Floor--inject-62" class="animable" style="transform-origin: 375px 475.25px;"><path d="M681.12,475.24c0,.14-137.07.26-306.11.26s-306.13-.12-306.13-.26S205.92,475,375,475,681.12,475.09,681.12,475.24Z" style="fill: rgb(38, 50, 56); transform-origin: 375px 475.25px;" id="elyxxwxc916gc" class="animable"></path></g><g id="freepik--Device--inject-62" class="animable" style="transform-origin: 373.33px 283.085px;"><path d="M590.87,90.93H155.79a13.58,13.58,0,0,0-13.58,13.58V411.82a13.58,13.58,0,0,0,13.58,13.58h167s10.62,32.84-22.3,49.84H456.6S419.43,462.49,429,425.4H590.87a13.58,13.58,0,0,0,13.58-13.58V104.51A13.58,13.58,0,0,0,590.87,90.93Z" style="fill: rgb(69, 90, 100); transform-origin: 373.33px 283.085px;" id="el68ob2a4v2i6" class="animable"></path><path d="M379.14,393.08c5.92,8.46-3.35,17.72-11.81,11.8a2.94,2.94,0,0,1-.72-.73c-5.91-8.45,3.35-17.7,11.8-11.8A3.16,3.16,0,0,1,379.14,393.08Z" style="fill: rgb(38, 50, 56); transform-origin: 372.877px 398.62px;" id="elt6tt1odo1lo" class="animable"></path><path d="M159.4,96.56H587.26a9.7,9.7,0,0,1,9.7,9.7V369.18a0,0,0,0,1,0,0H149.7a0,0,0,0,1,0,0V106.26a9.7,9.7,0,0,1,9.7-9.7Z" style="fill: rgb(255, 255, 255); transform-origin: 373.33px 232.87px;" id="elpuoh2eofv" class="animable"></path><path d="M158.86,96.56H589.44a7.52,7.52,0,0,1,7.52,7.52v15.14a0,0,0,0,1,0,0H149.7a0,0,0,0,1,0,0v-13.5A9.15,9.15,0,0,1,158.86,96.56Z" style="fill: rgb(235, 235, 235); transform-origin: 373.33px 107.89px;" id="el8gtgexqpc4g" class="animable"></path><path d="M513.08,425.44c0,.15-61.91.26-138.26.26s-138.28-.11-138.28-.26,61.9-.26,138.28-.26S513.08,425.3,513.08,425.44Z" style="fill: rgb(38, 50, 56); transform-origin: 374.81px 425.44px;" id="elau6vib8a5ge" class="animable"></path></g><g id="freepik--Resume--inject-62" class="animable" style="transform-origin: 384.625px 201.41px;"><rect x="248.39" y="49.36" width="272.73" height="320.17" style="fill: rgb(255, 255, 255); transform-origin: 384.755px 209.445px;" id="el7txirffb43a" class="animable"></rect><rect x="483.91" y="49.41" width="37.13" height="34.94" style="fill: rgb(245, 245, 245); transform-origin: 502.475px 66.88px;" id="elt2k0x6jjl7q" class="animable"></rect><rect x="497.87" y="60.8" width="2.94" height="2.95" style="fill: rgb(255, 255, 255); transform-origin: 499.34px 62.275px;" id="el9658xdwcohb" class="animable"></rect><rect x="501.96" y="60.8" width="2.94" height="2.95" style="fill: rgb(255, 255, 255); transform-origin: 503.43px 62.275px;" id="eldbmp940ce76" class="animable"></rect><rect x="506.04" y="60.8" width="2.94" height="2.95" style="fill: rgb(255, 255, 255); transform-origin: 507.51px 62.275px;" id="el5grn9kuvadk" class="animable"></rect><rect x="497.87" y="65.2" width="2.94" height="2.95" style="fill: rgb(255, 255, 255); transform-origin: 499.34px 66.675px;" id="elbwn3sjlj6k" class="animable"></rect><rect x="501.96" y="65.2" width="2.94" height="2.95" style="fill: rgb(255, 255, 255); transform-origin: 503.43px 66.675px;" id="elb8c7vrtspc4" class="animable"></rect><rect x="506.04" y="65.2" width="2.94" height="2.95" style="fill: rgb(255, 255, 255); transform-origin: 507.51px 66.675px;" id="elabisbtbiz1i" class="animable"></rect><rect x="497.87" y="69.59" width="2.94" height="2.95" style="fill: rgb(255, 255, 255); transform-origin: 499.34px 71.065px;" id="eltha5h2fnrg8" class="animable"></rect><rect x="501.96" y="69.59" width="2.94" height="2.95" style="fill: rgb(255, 255, 255); transform-origin: 503.43px 71.065px;" id="elp2ozxdqlpa" class="animable"></rect><rect x="506.04" y="69.59" width="2.94" height="2.95" style="fill: rgb(255, 255, 255); transform-origin: 507.51px 71.065px;" id="el05yhl3ne0ixr" class="animable"></rect><rect x="248.31" y="33.23" width="272.73" height="16.18" style="fill: rgb(224, 224, 224); transform-origin: 384.675px 41.32px;" id="elee1p0duypg" class="animable"></rect><path d="M258.42,41.32a2.67,2.67,0,1,1-2.66-2.67A2.67,2.67,0,0,1,258.42,41.32Z" style="fill: rgb(255, 255, 255); transform-origin: 255.75px 41.32px;" id="elqwvv7rq62n" class="animable"></path><path d="M266,41.32a2.67,2.67,0,1,1-2.67-2.67A2.67,2.67,0,0,1,266,41.32Z" style="fill: rgb(255, 255, 255); transform-origin: 263.33px 41.32px;" id="elgcrlr3fx4xs" class="animable"></path><path d="M273.64,41.32A2.67,2.67,0,1,1,271,38.65,2.68,2.68,0,0,1,273.64,41.32Z" style="fill: rgb(255, 255, 255); transform-origin: 270.97px 41.3198px;" id="el3jt3s9vet6l" class="animable"></path><path d="M280.41,79v9.29h-2.14V84.47h-4.21v3.81h-2.14V79h2.14v3.66h4.21V79Z" style="fill: rgb(38, 50, 56); transform-origin: 276.165px 83.645px;" id="elukkhkk2kys" class="animable"></path><path d="M289.4,85.29H284a1.9,1.9,0,0,0,2,1.44,2.42,2.42,0,0,0,1.78-.69l1.1,1.19A3.7,3.7,0,0,1,286,88.39c-2.47,0-4.07-1.56-4.07-3.68a3.63,3.63,0,0,1,3.8-3.68,3.54,3.54,0,0,1,3.71,3.71C289.44,84.89,289.41,85.12,289.4,85.29ZM284,84.09h3.51a1.78,1.78,0,0,0-3.51,0Z" style="fill: rgb(38, 50, 56); transform-origin: 285.687px 84.7102px;" id="el2s16rjfb10p" class="animable"></path><path d="M290.81,78.43h2.07v9.85h-2.07Z" style="fill: rgb(38, 50, 56); transform-origin: 291.845px 83.355px;" id="elshz83o2vh6" class="animable"></path><path d="M294.8,78.43h2.06v9.85H294.8Z" style="fill: rgb(38, 50, 56); transform-origin: 295.83px 83.355px;" id="elngaufsscihn" class="animable"></path><path d="M298.25,84.71a3.92,3.92,0,1,1,3.91,3.68A3.67,3.67,0,0,1,298.25,84.71Zm5.73,0a1.83,1.83,0,1,0-1.82,2A1.8,1.8,0,0,0,304,84.71Z" style="fill: rgb(38, 50, 56); transform-origin: 302.163px 84.4739px;" id="el7xdz0xbt799" class="animable"></path><path d="M307.14,87.18a1.27,1.27,0,0,1,2.54,0,1.27,1.27,0,0,1-2.54,0Zm0-8.19h2.46l-.41,6.06h-1.64Z" style="fill: rgb(38, 50, 56); transform-origin: 308.41px 83.72px;" id="elmijr91cho6" class="animable"></path><path d="M318.21,98.43c0,.15-10.44.26-23.32.26s-23.32-.11-23.32-.26,10.44-.26,23.32-.26S318.21,98.29,318.21,98.43Z" style="fill: rgb(38, 50, 56); transform-origin: 294.89px 98.43px;" id="elijicxu2tr4s" class="animable"></path><path d="M359.75,106.31c0,.14-19.74.26-44.09.26s-44.09-.12-44.09-.26,19.74-.26,44.09-.26S359.75,106.17,359.75,106.31Z" style="fill: rgb(38, 50, 56); transform-origin: 315.66px 106.31px;" id="el5oiwkht0sh2" class="animable"></path><path d="M374.48,115.13c0,.14-22.94.26-51.23.26s-51.23-.12-51.23-.26,22.93-.26,51.23-.26S374.48,115,374.48,115.13Z" style="fill: rgb(224, 224, 224); transform-origin: 323.25px 115.13px;" id="elxf7l0sg9mu" class="animable"></path><path d="M374.48,121c0,.14-22.94.26-51.23.26S272,121.17,272,121s22.93-.26,51.23-.26S374.48,120.89,374.48,121Z" style="fill: rgb(224, 224, 224); transform-origin: 323.24px 121px;" id="el4k43o3kr4a4" class="animable"></path><path d="M328.91,143.93h0a7.1,7.1,0,0,1-7.09-7.11h0a7.1,7.1,0,0,1,7.09-7.11h0a7.1,7.1,0,0,1,7.09,7.11h0A7.11,7.11,0,0,1,328.91,143.93Z" style="fill: #F03C81; transform-origin: 328.91px 136.82px;" id="elrw73h0e3kp" class="animable"></path><rect x="325.69" y="135.23" width="1.47" height="4.75" style="fill: rgb(255, 255, 255); transform-origin: 326.425px 137.605px;" id="el2ikks8y325p" class="animable"></rect><path d="M326.42,134.61a.88.88,0,1,0-.87-.87A.87.87,0,0,0,326.42,134.61Z" style="fill: rgb(255, 255, 255); transform-origin: 326.43px 133.73px;" id="elp02fc0zk2ls" class="animable"></path><path d="M329.51,137.49c0-.67.3-1.06.89-1.06s.8.38.8,1.06V140h1.46v-3a1.72,1.72,0,0,0-3.15-1.11v-.64H328.1V140h1.41Z" style="fill: rgb(255, 255, 255); transform-origin: 330.384px 137.557px;" id="elkg6ej3nl9oj" class="animable"></path><path d="M295.23,144h0a7.15,7.15,0,0,1-7.15-7.16h0a7.16,7.16,0,0,1,7.15-7.17h0a7.15,7.15,0,0,1,7.14,7.17h0A7.14,7.14,0,0,1,295.23,144Z" style="fill: #F03C81; transform-origin: 295.225px 136.835px;" id="el9458qgq9kl" class="animable"></path><path d="M296.84,136.63H294v.83h1.95a1.91,1.91,0,0,1-1.89,1.63,2.27,2.27,0,1,1,1.54-3.94l.64-.55a3.11,3.11,0,1,0-2.18,5.33,2.82,2.82,0,0,0,2.83-3Z" style="fill: rgb(255, 255, 255); transform-origin: 293.924px 136.82px;" id="elid7wl6l0rub" class="animable"></path><polygon points="300.99 136.67 299.8 136.67 299.8 135.47 299.04 135.47 299.04 136.67 297.84 136.67 297.84 137.43 299.04 137.43 299.04 138.62 299.8 138.62 299.8 137.43 300.99 137.43 300.99 136.67" style="fill: rgb(255, 255, 255); transform-origin: 299.415px 137.045px;" id="elsl0k5c7z63" class="animable"></polygon><path d="M312.31,143.88h0a7.05,7.05,0,0,1-7-7h0a7.05,7.05,0,0,1,7-7.06h0a7,7,0,0,1,7,7.06h0A7,7,0,0,1,312.31,143.88Z" style="fill: #F03C81; transform-origin: 312.31px 136.85px;" id="el0xr4eevuxev" class="animable"></path><path d="M312.31,133.65c1,0,1.16,0,1.56,0a2.07,2.07,0,0,1,.72.13,1.31,1.31,0,0,1,.73.73,2.13,2.13,0,0,1,.13.72c0,.41,0,.53,0,1.57s0,1.15,0,1.56a2.07,2.07,0,0,1-.13.72,1.31,1.31,0,0,1-.73.73,2,2,0,0,1-.72.14c-.4,0-.53,0-1.56,0s-1.15,0-1.56,0a1.94,1.94,0,0,1-.71-.14,1.29,1.29,0,0,1-.74-.73,2.35,2.35,0,0,1-.13-.72c0-.41,0-.53,0-1.56s0-1.16,0-1.57a2.42,2.42,0,0,1,.13-.72,1.29,1.29,0,0,1,.74-.73,2,2,0,0,1,.71-.13c.41,0,.53,0,1.56,0m0-.69c-1.05,0-1.18,0-1.59,0a2.8,2.8,0,0,0-.94.18,1.92,1.92,0,0,0-.68.45,1.81,1.81,0,0,0-.44.68,2.8,2.8,0,0,0-.18.94c0,.41,0,.55,0,1.6s0,1.18,0,1.59a2.74,2.74,0,0,0,.18.94,1.84,1.84,0,0,0,.44.69,2,2,0,0,0,.68.44,2.8,2.8,0,0,0,.94.18c.41,0,.54,0,1.59,0s1.18,0,1.59,0a2.8,2.8,0,0,0,.94-.18,1.94,1.94,0,0,0,.68-.44,1.87,1.87,0,0,0,.45-.69,3,3,0,0,0,.18-.94c0-.41,0-.54,0-1.59s0-1.19,0-1.6a3.07,3.07,0,0,0-.18-.94,2,2,0,0,0-1.13-1.13,2.8,2.8,0,0,0-.94-.18c-.41,0-.54,0-1.59,0" style="fill: rgb(255, 255, 255); transform-origin: 312.315px 136.805px;" id="eleod824giw0w" class="animable"></path><path d="M312.31,134.84a2,2,0,1,0,2,2,2,2,0,0,0-2-2m0,3.28a1.29,1.29,0,1,1,1.29-1.29,1.28,1.28,0,0,1-1.29,1.29" style="fill: rgb(255, 255, 255); transform-origin: 312.31px 136.84px;" id="elpyf6mzbip1l" class="animable"></path><path d="M314.84,134.76a.47.47,0,1,1-.93,0,.47.47,0,0,1,.93,0" style="fill: rgb(255, 255, 255); transform-origin: 314.375px 134.828px;" id="eligyqgogmqas" class="animable"></path><path d="M278.38,144h0a7.09,7.09,0,0,1-7.08-7.11h0a7.09,7.09,0,0,1,7.08-7.1h0a7.1,7.1,0,0,1,7.09,7.1h0A7.1,7.1,0,0,1,278.38,144Z" style="fill: #F03C81; transform-origin: 278.385px 136.895px;" id="el3yxzryw2434" class="animable"></path><path d="M277.3,141.17H279v-4.33h1.2l.13-1.45H279v-.83c0-.34.06-.48.39-.48h.94v-1.5h-1.2c-1.28,0-1.86.57-1.86,1.65v1.16h-.9v1.46h.9Z" style="fill: rgb(255, 255, 255); transform-origin: 278.35px 136.875px;" id="elktbfphcjoyo" class="animable"></path><path d="M347,153.59c0,.14-17.92.26-40,.26s-40-.12-40-.26,17.93-.26,40-.26S347,153.44,347,153.59Z" style="fill: rgb(38, 50, 56); transform-origin: 307px 153.59px;" id="elxdr6bgo1n4" class="animable"></path><rect x="264.5" y="179.78" width="244.43" height="189.28" style="fill: rgb(245, 245, 245); transform-origin: 386.715px 274.42px;" id="eluxwt5y0rr2h" class="animable"></rect><path d="M341.69,202.28c0,.14-7.44.26-16.61.26s-16.6-.12-16.6-.26,7.43-.26,16.6-.26S341.69,202.13,341.69,202.28Z" style="fill: #F03C81; transform-origin: 325.085px 202.28px;" id="elp6mkjlfo42g" class="animable"></path><path d="M460.75,202.28c0,.14-7.43.26-16.6.26s-16.6-.12-16.6-.26,7.43-.26,16.6-.26S460.75,202.13,460.75,202.28Z" style="fill: #F03C81; transform-origin: 444.15px 202.28px;" id="el8ev2yxhp5tx" class="animable"></path><path d="M460.75,240.55c0,.15-7.43.26-16.6.26s-16.6-.11-16.6-.26,7.43-.26,16.6-.26S460.75,240.41,460.75,240.55Z" style="fill: #F03C81; transform-origin: 444.15px 240.55px;" id="el9kkqu4nyvwd" class="animable"></path><path d="M353,214.55c0,.14-9.66.26-21.57.26s-21.56-.12-21.56-.26,9.65-.26,21.56-.26S353,214.41,353,214.55Z" style="fill: rgb(69, 90, 100); transform-origin: 331.435px 214.55px;" id="elgwwogovq59j" class="animable"></path><path d="M351.67,237.18c0,.15-9.66.26-21.57.26s-21.56-.11-21.56-.26,9.65-.26,21.56-.26S351.67,237,351.67,237.18Z" style="fill: rgb(38, 50, 56); transform-origin: 330.105px 237.18px;" id="elrtmr3x6ox2" class="animable"></path><path d="M306.65,214.55a1,1,0,1,1-1-1A1,1,0,0,1,306.65,214.55Z" style="fill: rgb(38, 50, 56); transform-origin: 305.65px 214.55px;" id="elt9n912mf9ph" class="animable"></path><path d="M306.65,237.18a1,1,0,1,1-1-1A1,1,0,0,1,306.65,237.18Z" style="fill: rgb(38, 50, 56); transform-origin: 305.65px 237.18px;" id="eljvm6k07n0z9" class="animable"></path><path d="M306.6,256.32a1,1,0,1,1-1-1A1,1,0,0,1,306.6,256.32Z" style="fill: rgb(38, 50, 56); transform-origin: 305.6px 256.32px;" id="elnfogmknbk0p" class="animable"></path><path d="M305.6,234.46a74.92,74.92,0,0,1-.26-8.76,74.81,74.81,0,0,1,.26-8.75,72.27,72.27,0,0,1,.26,8.75A72.38,72.38,0,0,1,305.6,234.46Z" style="fill: rgb(38, 50, 56); transform-origin: 305.602px 225.705px;" id="el8i7ht7sbppg" class="animable"></path><path d="M305.6,252.67a36,36,0,0,1-.26-6.06,36.05,36.05,0,0,1,.26-6.06,34.83,34.83,0,0,1,.26,6.06A34.74,34.74,0,0,1,305.6,252.67Z" style="fill: rgb(38, 50, 56); transform-origin: 305.602px 246.61px;" id="elqubex653ob" class="animable"></path><path d="M327.7,218.22a71.54,71.54,0,0,1-8.56.26,71.68,71.68,0,0,1-8.56-.26,69.24,69.24,0,0,1,8.56-.26A69.11,69.11,0,0,1,327.7,218.22Z" style="fill: rgb(69, 90, 100); transform-origin: 319.14px 218.218px;" id="el6sqsw10bw1v" class="animable"></path><path d="M352.65,225.21c0,.14-9.34.26-20.85.26s-20.85-.12-20.85-.26,9.33-.26,20.85-.26S352.65,225.06,352.65,225.21Z" style="fill: rgb(224, 224, 224); transform-origin: 331.8px 225.21px;" id="el8skma47eycm" class="animable"></path><path d="M341,231c0,.14-6.72.26-15,.26s-15-.12-15-.26,6.72-.26,15-.26S341,230.88,341,231Z" style="fill: rgb(224, 224, 224); transform-origin: 326px 231px;" id="elz7iyyyv715" class="animable"></path><path d="M352.28,228c0,.14-9.33.26-20.85.26s-20.85-.12-20.85-.26,9.34-.26,20.85-.26S352.28,227.88,352.28,228Z" style="fill: rgb(224, 224, 224); transform-origin: 331.43px 228px;" id="elr8ofhn0hme" class="animable"></path><path d="M352.65,243.49c0,.14-9.34.26-20.85.26s-20.85-.12-20.85-.26,9.33-.26,20.85-.26S352.65,243.34,352.65,243.49Z" style="fill: rgb(224, 224, 224); transform-origin: 331.8px 243.49px;" id="elvbzqebgc0fe" class="animable"></path><path d="M341,249.31c0,.14-6.72.26-15,.26s-15-.12-15-.26,6.72-.26,15-.26S341,249.16,341,249.31Z" style="fill: rgb(224, 224, 224); transform-origin: 326px 249.31px;" id="elbn7k152chwh" class="animable"></path><path d="M352.28,246.31c0,.14-9.33.26-20.85.26s-20.85-.12-20.85-.26,9.34-.26,20.85-.26S352.28,246.16,352.28,246.31Z" style="fill: rgb(224, 224, 224); transform-origin: 331.43px 246.31px;" id="elwbmb6fj20l" class="animable"></path><path d="M351.67,256.51c0,.15-9.66.26-21.57.26s-21.56-.11-21.56-.26,9.65-.26,21.56-.26S351.67,256.37,351.67,256.51Z" style="fill: rgb(38, 50, 56); transform-origin: 330.105px 256.51px;" id="el973ak3mha3u" class="animable"></path><path d="M352.65,262.82c0,.14-9.34.26-20.85.26S311,263,311,262.82s9.33-.26,20.85-.26S352.65,262.67,352.65,262.82Z" style="fill: rgb(224, 224, 224); transform-origin: 331.825px 262.82px;" id="elbodo9vzctg" class="animable"></path><path d="M341,268.64c0,.14-6.72.26-15,.26s-15-.12-15-.26,6.72-.26,15-.26S341,268.49,341,268.64Z" style="fill: rgb(224, 224, 224); transform-origin: 326px 268.64px;" id="el9hb963vlm7i" class="animable"></path><path d="M352.28,265.64c0,.14-9.33.26-20.85.26s-20.85-.12-20.85-.26,9.34-.26,20.85-.26S352.28,265.49,352.28,265.64Z" style="fill: rgb(224, 224, 224); transform-origin: 331.43px 265.64px;" id="elujr0hrt4r7" class="animable"></path><path d="M341.69,281.64c0,.14-7.44.26-16.61.26s-16.6-.12-16.6-.26,7.43-.26,16.6-.26S341.69,281.49,341.69,281.64Z" style="fill: #F03C81; transform-origin: 325.085px 281.64px;" id="eliwo0rtcw35n" class="animable"></path><path d="M353,293.91c0,.14-9.66.26-21.57.26s-21.56-.12-21.56-.26,9.65-.26,21.56-.26S353,293.77,353,293.91Z" style="fill: rgb(69, 90, 100); transform-origin: 331.435px 293.91px;" id="el266vk1i8aoa" class="animable"></path><path d="M351.67,316.54c0,.15-9.66.26-21.57.26s-21.56-.11-21.56-.26,9.65-.26,21.56-.26S351.67,316.4,351.67,316.54Z" style="fill: rgb(38, 50, 56); transform-origin: 330.105px 316.54px;" id="eluo7oq3uxz6" class="animable"></path><circle cx="305.66" cy="293.91" r="0.99" style="fill: rgb(38, 50, 56); transform-origin: 305.66px 293.91px;" id="elh1irqi99ijc" class="animable"></circle><path d="M306.65,316.54a1,1,0,1,1-1-1A1,1,0,0,1,306.65,316.54Z" style="fill: rgb(38, 50, 56); transform-origin: 305.65px 316.54px;" id="el8cpk2phz6hq" class="animable"></path><path d="M306.6,335.68a1,1,0,1,1-2,0,1,1,0,0,1,2,0Z" style="fill: rgb(38, 50, 56); transform-origin: 305.6px 335.68px;" id="el9nb0h00odfb" class="animable"></path><path d="M305.6,313.82a74.81,74.81,0,0,1-.26-8.75,74.92,74.92,0,0,1,.26-8.76,72.38,72.38,0,0,1,.26,8.76A72.27,72.27,0,0,1,305.6,313.82Z" style="fill: rgb(38, 50, 56); transform-origin: 305.602px 305.065px;" id="elvesz1zb102a" class="animable"></path><path d="M305.6,332a70.75,70.75,0,0,1,0-12.12,70.75,70.75,0,0,1,0,12.12Z" style="fill: rgb(38, 50, 56); transform-origin: 305.6px 325.94px;" id="el96a2jt9dnni" class="animable"></path><path d="M327.7,297.58a71.54,71.54,0,0,1-8.56.26,71.68,71.68,0,0,1-8.56-.26,69.24,69.24,0,0,1,8.56-.26A69.11,69.11,0,0,1,327.7,297.58Z" style="fill: rgb(69, 90, 100); transform-origin: 319.14px 297.578px;" id="elc10ap6wspg8" class="animable"></path><path d="M352.65,304.57c0,.14-9.34.26-20.85.26s-20.85-.12-20.85-.26,9.33-.26,20.85-.26S352.65,304.42,352.65,304.57Z" style="fill: rgb(224, 224, 224); transform-origin: 331.8px 304.57px;" id="el83uv1uhs9s8" class="animable"></path><path d="M341,310.39c0,.14-6.72.26-15,.26s-15-.12-15-.26,6.72-.26,15-.26S341,310.25,341,310.39Z" style="fill: rgb(224, 224, 224); transform-origin: 326px 310.39px;" id="elwbtbos95oca" class="animable"></path><path d="M352.28,307.39c0,.14-9.33.26-20.85.26s-20.85-.12-20.85-.26,9.34-.26,20.85-.26S352.28,307.24,352.28,307.39Z" style="fill: rgb(224, 224, 224); transform-origin: 331.43px 307.39px;" id="eltemt8tydo2" class="animable"></path><path d="M352.65,322.85c0,.14-9.34.26-20.85.26S311,323,311,322.85s9.33-.26,20.85-.26S352.65,322.7,352.65,322.85Z" style="fill: rgb(224, 224, 224); transform-origin: 331.825px 322.85px;" id="el62keid2rn8c" class="animable"></path><path d="M341,328.67c0,.14-6.72.26-15,.26s-15-.12-15-.26,6.72-.26,15-.26S341,328.53,341,328.67Z" style="fill: rgb(224, 224, 224); transform-origin: 326px 328.67px;" id="elxertqumdyfe" class="animable"></path><path d="M352.28,325.67c0,.14-9.33.26-20.85.26s-20.85-.12-20.85-.26,9.34-.26,20.85-.26S352.28,325.52,352.28,325.67Z" style="fill: rgb(224, 224, 224); transform-origin: 331.43px 325.67px;" id="elwchq73m643" class="animable"></path><path d="M351.67,335.87c0,.15-9.66.26-21.57.26s-21.56-.11-21.56-.26,9.65-.26,21.56-.26S351.67,335.73,351.67,335.87Z" style="fill: rgb(38, 50, 56); transform-origin: 330.105px 335.87px;" id="el594g30kvxex" class="animable"></path><path d="M352.65,342.18c0,.14-9.34.26-20.85.26s-20.85-.12-20.85-.26,9.33-.26,20.85-.26S352.65,342,352.65,342.18Z" style="fill: rgb(224, 224, 224); transform-origin: 331.8px 342.18px;" id="elgotgdi6xkd" class="animable"></path><path d="M341,348c0,.14-6.72.26-15,.26s-15-.12-15-.26,6.72-.26,15-.26S341,347.86,341,348Z" style="fill: rgb(224, 224, 224); transform-origin: 326px 348px;" id="el9tzouu33kin" class="animable"></path><path d="M352.28,345c0,.14-9.33.26-20.85.26s-20.85-.12-20.85-.26,9.34-.26,20.85-.26S352.28,344.85,352.28,345Z" style="fill: rgb(224, 224, 224); transform-origin: 331.43px 345px;" id="elxd2gi36pz1b" class="animable"></path><path d="M389.47,368.6c-.14,0-.26-42-.26-93.82s.12-93.82.26-93.82.26,42,.26,93.82S389.61,368.6,389.47,368.6Z" style="fill: rgb(69, 90, 100); transform-origin: 389.47px 274.78px;" id="elczeq09qi0y5" class="animable"></path><path d="M483.91,213.46c0,.14-13.14.26-29.34.26s-29.35-.12-29.35-.26,13.13-.26,29.35-.26S483.91,213.32,483.91,213.46Z" style="fill: rgb(69, 90, 100); transform-origin: 454.565px 213.46px;" id="eln80ng3mz7np" class="animable"></path><path d="M484.69,218.22c0,.14-13,.26-29.13.26s-29.13-.12-29.13-.26,13-.26,29.13-.26S484.69,218.07,484.69,218.22Z" style="fill: rgb(69, 90, 100); transform-origin: 455.56px 218.22px;" id="elet5ofzyyml6" class="animable"></path><path d="M460.75,313.91c0,.14-7.43.26-16.6.26s-16.6-.12-16.6-.26,7.43-.26,16.6-.26S460.75,313.77,460.75,313.91Z" style="fill: #F03C81; transform-origin: 444.15px 313.91px;" id="elbenxeij4mpd" class="animable"></path><path d="M483.91,325.09c0,.15-13.14.26-29.34.26s-29.35-.11-29.35-.26,13.13-.26,29.35-.26S483.91,325,483.91,325.09Z" style="fill: rgb(69, 90, 100); transform-origin: 454.565px 325.09px;" id="el0rdhv1pp81el" class="animable"></path><path d="M484.69,329.85c0,.14-13.31.26-29.73.26s-29.74-.12-29.74-.26,13.31-.26,29.74-.26S484.69,329.71,484.69,329.85Z" style="fill: rgb(69, 90, 100); transform-origin: 454.955px 329.85px;" id="el7rayy14047c" class="animable"></path><path d="M479.16,256.41H428.68a2.24,2.24,0,0,1-2.25-2.24h0a2.25,2.25,0,0,1,2.25-2.25h50.48a2.25,2.25,0,0,1,2.25,2.25h0A2.24,2.24,0,0,1,479.16,256.41Z" style="fill: rgb(224, 224, 224); transform-origin: 453.92px 254.165px;" id="elqshiq6w3qi" class="animable"></path><path d="M455.83,256.41H428.68a2.24,2.24,0,0,1-2.25-2.24h0a2.25,2.25,0,0,1,2.25-2.25h27.15a2.25,2.25,0,0,1,2.25,2.25h0A2.24,2.24,0,0,1,455.83,256.41Z" style="fill: #F03C81; transform-origin: 442.255px 254.165px;" id="elhcinv6h01su" class="animable"></path><path d="M479.16,266.41H428.68a2.24,2.24,0,0,1-2.25-2.24h0a2.25,2.25,0,0,1,2.25-2.25h50.48a2.25,2.25,0,0,1,2.25,2.25h0A2.24,2.24,0,0,1,479.16,266.41Z" style="fill: rgb(224, 224, 224); transform-origin: 453.92px 264.165px;" id="eldl9m3rvdcyc" class="animable"></path><path d="M447,266.41H428.68a2.24,2.24,0,0,1-2.25-2.24h0a2.25,2.25,0,0,1,2.25-2.25H447a2.25,2.25,0,0,1,2.25,2.25h0A2.24,2.24,0,0,1,447,266.41Z" style="fill: #F03C81; transform-origin: 437.84px 264.165px;" id="elc1nly4vykaa" class="animable"></path><path d="M479.16,276.41H428.68a2.24,2.24,0,0,1-2.25-2.24h0a2.25,2.25,0,0,1,2.25-2.25h50.48a2.25,2.25,0,0,1,2.25,2.25h0A2.24,2.24,0,0,1,479.16,276.41Z" style="fill: rgb(224, 224, 224); transform-origin: 453.92px 274.165px;" id="elg1d5083emmd" class="animable"></path><path d="M471.85,276.41H428.68a2.24,2.24,0,0,1-2.25-2.24h0a2.25,2.25,0,0,1,2.25-2.25h43.17a2.24,2.24,0,0,1,2.24,2.25h0A2.24,2.24,0,0,1,471.85,276.41Z" style="fill: #F03C81; transform-origin: 450.26px 274.165px;" id="elh32g4wvi1g" class="animable"></path><path d="M479.16,286.42H428.68a2.25,2.25,0,0,1-2.25-2.25h0a2.25,2.25,0,0,1,2.25-2.25h50.48a2.25,2.25,0,0,1,2.25,2.25h0A2.25,2.25,0,0,1,479.16,286.42Z" style="fill: rgb(224, 224, 224); transform-origin: 453.92px 284.17px;" id="el64wq4ujclwd" class="animable"></path><path d="M465.72,286.42h-37a2.25,2.25,0,0,1-2.25-2.25h0a2.25,2.25,0,0,1,2.25-2.25h37a2.25,2.25,0,0,1,2.25,2.25h0A2.25,2.25,0,0,1,465.72,286.42Z" style="fill: #F03C81; transform-origin: 447.22px 284.17px;" id="elcfsicwod8jr" class="animable"></path><path d="M421.52,255.12a42,42,0,0,1-9.51,0,43.61,43.61,0,0,1,9.51,0Z" style="fill: rgb(69, 90, 100); transform-origin: 416.765px 255.125px;" id="eln6vyy4aonu" class="animable"></path><path d="M421.52,264.17a43.61,43.61,0,0,1-9.51,0,43.61,43.61,0,0,1,9.51,0Z" style="fill: rgb(69, 90, 100); transform-origin: 416.765px 264.17px;" id="elmbkphh21nd" class="animable"></path><path d="M421.52,273.21a43.61,43.61,0,0,1-9.51,0,43.61,43.61,0,0,1,9.51,0Z" style="fill: rgb(69, 90, 100); transform-origin: 416.765px 273.21px;" id="elvmhyqwebpxb" class="animable"></path><path d="M421.52,282.25a43.61,43.61,0,0,1-9.51,0,43.61,43.61,0,0,1,9.51,0Z" style="fill: rgb(69, 90, 100); transform-origin: 416.765px 282.25px;" id="ellx4m9qu0a4t" class="animable"></path><polygon points="284.57 196.94 292.98 193.25 300.62 196.94 292.81 200.94 284.57 196.94" style="fill: #F03C81; transform-origin: 292.595px 197.095px;" id="elh9ch1hce2qh" class="animable"></polygon><polygon points="286.33 198.95 286.21 203.97 298.67 203.97 298.67 199.12 292.65 202.07 286.33 198.95" style="fill: #F03C81; transform-origin: 292.44px 201.46px;" id="elhyzo8ykgpfl" class="animable"></polygon><rect x="406.19" y="196.54" width="12.45" height="7.91" style="fill: #F03C81; transform-origin: 412.415px 200.495px;" id="elo9z28tt5lb" class="animable"></rect><rect x="409.92" y="204.45" width="5" height="2.48" style="fill: #F03C81; transform-origin: 412.42px 205.69px;" id="elbueylxxc7l9" class="animable"></rect><path d="M417.69,206.84a59.58,59.58,0,0,1-11.12,0,59.58,59.58,0,0,1,11.12,0Z" style="fill: #F03C81; transform-origin: 412.13px 206.84px;" id="eleuojvfm0oc" class="animable"></path><rect x="281.61" y="276.45" width="12.45" height="7.91" style="fill: #F03C81; transform-origin: 287.835px 280.405px;" id="elzngomi2z53e" class="animable"></rect><rect x="285.33" y="284.36" width="5" height="2.48" style="fill: #F03C81; transform-origin: 287.83px 285.6px;" id="el8wzrc7d93xq" class="animable"></rect><path d="M293.1,286.75a59.58,59.58,0,0,1-11.12,0,59.58,59.58,0,0,1,11.12,0Z" style="fill: #F03C81; transform-origin: 287.54px 286.75px;" id="el5i8uczm5s0c" class="animable"></path><path d="M418,243l-1.13-2a5.38,5.38,0,1,0-1.29,1.43h0Z" style="fill: #F03C81; transform-origin: 412.457px 238.17px;" id="el5spfplejdwq" class="animable"></path><path d="M414.92,311a3.06,3.06,0,0,0,1.83-2.84,2.89,2.89,0,1,0-5.76,0,3.08,3.08,0,0,0,1.84,2.87c-4.44.67-4.23,5.49-4.23,5.49l10.48,0S419.32,311.67,414.92,311Z" style="fill: #F03C81; transform-origin: 413.84px 310.775px;" id="eltkboxbt5hbl" class="animable"></path><path d="M521,33.23c0,2,.1,136.34.24,336.35v.24H521l-272.7,0h-.29v-.27c0-124.45,0-240.17,0-336.35V33h.22L521,33.23l-272.73.22.22-.22c0,96.18,0,211.9,0,336.35l-.26-.26h0l272.7,0-.23.23C521,169.57,521,35.26,521,33.23Z" style="fill: rgb(38, 50, 56); transform-origin: 384.625px 201.41px;" id="el010dh18uccue" class="animable"></path></g><g id="freepik--Plant--inject-62" class="animable animator-hidden" style="transform-origin: 589px 358.64px;"><path d="M635.81,247.46c-11.87,6.15-21,16.73-27.51,28.39S597.54,300.29,593.36,313l-3.66,65.47c13.81-23.49,24.9-51.11,27.89-78.19l-9.19-.82c6.16-.94,11.33-5.4,14.62-10.7s5-11.4,6.64-17.4L618.45,273A41.54,41.54,0,0,0,635.81,247.46Z" style="fill: rgb(69, 90, 100); transform-origin: 612.755px 312.965px;" id="elgrnewgyey4r" class="animable"></path><path d="M635.81,247.46c-11.87,6.15-21,16.73-27.51,28.39S597.54,300.29,593.36,313l-3.66,65.47c13.81-23.49,24.9-51.11,27.89-78.19l-9.19-.82c6.16-.94,11.33-5.4,14.62-10.7s5-11.4,6.64-17.4L618.45,273A41.54,41.54,0,0,0,635.81,247.46Z" style="fill: #F03C81; transform-origin: 612.755px 312.965px;" id="elmyaz76533n" class="animable"></path><g id="elxmqomcvsbd"><g style="opacity: 0.3; transform-origin: 612.755px 312.965px;" class="animable" id="elemnwenuqbvt"><path d="M635.81,247.46c-11.87,6.15-21,16.73-27.51,28.39S597.54,300.29,593.36,313l-3.66,65.47c13.81-23.49,24.9-51.11,27.89-78.19l-9.19-.82c6.16-.94,11.33-5.4,14.62-10.7s5-11.4,6.64-17.4L618.45,273A41.54,41.54,0,0,0,635.81,247.46Z" id="elcpknv6uww3o" class="animable" style="transform-origin: 612.755px 312.965px;"></path></g></g><path d="M587.66,393.81s-30-35.88-29.63-70.13h12.11S557,315,558,310.19,559.42,287,559.42,287l11.07,2.77s-8.31-4.15-9.35-10.72,2.43-37,2.43-37,13.49,14.19,17.64,28.71,15,31.48,11.85,75.76S587.66,393.81,587.66,393.81Z" style="fill: #F03C81; transform-origin: 575.786px 317.93px;" id="elqwphzv9jxn" class="animable"></path><path d="M602.85,397.19s32.48-21.63,39.69-49.24l-9.73-2.65s12.46-4.08,12.69-8.2,4-18.93,4-18.93L640,318s7.58-1.52,9.85-6.58S656,281.1,656,281.1s-14,8.45-20.46,19.23-19,22-26.1,58.31S602.85,397.19,602.85,397.19Z" style="fill: #F03C81; transform-origin: 629.421px 339.145px;" id="elnzxmarbzvp" class="animable"></path><path d="M571.75,273.32a1.89,1.89,0,0,1,.11.37c.06.28.15.64.26,1.11.22,1,.54,2.43,1,4.26s.89,4.11,1.42,6.75,1.15,5.64,1.76,9c1.28,6.65,2.63,14.61,4,23.45s2.7,18.61,3.9,28.88,2.09,20.08,2.8,29,1.15,17,1.42,23.75c.17,3.39.25,6.45.34,9.14s.14,5,.16,6.9,0,3.33.05,4.36v1.13a2.87,2.87,0,0,1,0,.39,2.33,2.33,0,0,1,0-.39c0-.28,0-.65,0-1.13,0-1-.08-2.49-.15-4.36s-.12-4.2-.24-6.89-.22-5.75-.41-9.13c-.32-6.76-.86-14.81-1.54-23.73s-1.66-18.73-2.83-29-2.54-20-3.86-28.86-2.68-16.81-3.92-23.46c-.58-3.34-1.18-6.34-1.68-9s-1-4.92-1.33-6.77-.65-3.27-.85-4.28l-.21-1.12A3.58,3.58,0,0,1,571.75,273.32Z" style="fill: rgb(38, 50, 56); transform-origin: 580.363px 347.565px;" id="elqji8mfze6ig" class="animable"></path><path d="M583.5,415.77s-27.43-31.12-35.94-49.93l6.42-2.75c-4.66.77-9.43-1.23-13-4.27s-6.27-7.05-8.87-11l8.47-1.43A31.5,31.5,0,0,1,522,332.07c10,1.64,19,7.13,26.49,14,6,5.56,11.14,12,16.05,18.6a63,63,0,0,1,6.23,10.25C575.41,384.44,583.52,404.35,583.5,415.77Z" style="fill: #F03C81; transform-origin: 552.75px 373.92px;" id="eldmwbg9v2v2u" class="animable"></path><path d="M643,299.22a1.17,1.17,0,0,1-.13.31c-.1.23-.24.53-.42.91-.4.81-1,2-1.67,3.45-1.47,3-3.56,7.33-6.08,12.72s-5.44,11.86-8.57,19.08-6.41,15.23-9.69,23.7-6.21,16.62-8.78,24.06-4.74,14.19-6.49,19.88-3.15,10.31-4.07,13.51L596,420.52c-.12.39-.22.71-.29,1a1.72,1.72,0,0,1-.12.32,1.17,1.17,0,0,1,.07-.33l.24-1c.23-.88.57-2.12,1-3.71.86-3.22,2.19-7.85,3.9-13.55s3.87-12.47,6.4-19.93,5.47-15.61,8.74-24.1,6.61-16.47,9.74-23.7,6.1-13.67,8.67-19.05,4.71-9.69,6.24-12.65l1.76-3.41c.19-.37.35-.66.47-.88A1.39,1.39,0,0,1,643,299.22Z" style="fill: rgb(38, 50, 56); transform-origin: 619.295px 360.53px;" id="elhdaq5aceykq" class="animable"></path><path d="M585.83,429.11a2.43,2.43,0,0,1-.13-.57c-.07-.44-.16-1-.26-1.65s-.24-1.6-.43-2.62-.36-2.17-.64-3.44c-.49-2.55-1.19-5.56-2.09-8.87s-2.06-6.89-3.45-10.6-2.93-7.15-4.42-10.24-3-5.8-4.29-8c-.63-1.13-1.26-2.12-1.8-3s-1-1.63-1.4-2.24l-.9-1.42a.29.29,0,1,1,.09-.06l1,1.37c.42.59.93,1.32,1.48,2.19s1.21,1.85,1.87,3c1.36,2.21,2.86,4.93,4.4,8s3.06,6.55,4.48,10.27,2.52,7.34,3.43,10.66,1.54,6.36,2,8.92c.25,1.28.4,2.45.56,3.47s.26,1.9.34,2.63.12,1.23.16,1.67A2.12,2.12,0,0,1,585.83,429.11Z" style="fill: rgb(38, 50, 56); transform-origin: 575.732px 402.506px;" id="elrljogwry9qo" class="animable"></path><rect x="561.99" y="421.79" width="60.03" height="12.25" style="fill: rgb(38, 50, 56); transform-origin: 592.005px 427.915px;" id="elt74uymcdr3" class="animable"></rect><polygon points="567.71 434.04 574.2 475.23 610.48 475.23 616.53 434.04 567.71 434.04" style="fill: rgb(38, 50, 56); transform-origin: 592.12px 454.635px;" id="elv589wfxnvmr" class="animable"></polygon><path d="M618.34,434c0,.14-11.36.26-25.36.26s-25.37-.12-25.37-.26,11.36-.26,25.37-.26S618.34,433.89,618.34,434Z" style="fill: rgb(69, 90, 100); transform-origin: 592.975px 434px;" id="elc7v70o8059f" class="animable"></path></g><g id="freepik--character-2--inject-62" class="animable" style="transform-origin: 439.065px 120.325px;"><path d="M419.54,108.55s-11.11,3.8-12.49,11.2-2.92,17.55-2.92,17.55l16.8-.94Z" style="fill: #F03C81; transform-origin: 412.53px 122.925px;" id="elmlm9x8pxbtl" class="animable"></path><polygon points="428.94 104.95 418.54 108.95 416.37 162.06 414.98 179.78 467 179.78 460.76 108.55 444.54 105.16 428.94 104.95" style="fill: #F03C81; transform-origin: 440.99px 142.365px;" id="elhptrfscrrnf" class="animable"></polygon><path d="M474,134.93s-2.61-24.88-13.24-26.38L456.29,125v9.91Z" style="fill: #F03C81; transform-origin: 465.145px 121.74px;" id="elmcr8se8gbe" class="animable"></path><path d="M420.18,138.47s3.77-1.8,5.54-1.17,9.2,4.12,9.2,4.12l-14,4.63-3.44-3.94Z" style="fill: rgb(255, 190, 157); transform-origin: 426.2px 141.608px;" id="elnrx56j4r3j" class="animable"></path><g id="ellpg2749eto"><g style="opacity: 0.3; transform-origin: 441.143px 158.642px;" class="animable" id="elze05ob8mnw"><path d="M465.45,158.9a8.54,8.54,0,0,0-5.08-4.51,25.35,25.35,0,0,0-6.88-1.21l-19.62-1.6a18.91,18.91,0,0,0-7.39.38c-4.19,1.37-7.76,5.52-10.07,9.27v.88c2,1.49,4.77,1.47,7.19.86s4.69-1.72,7.13-2.24c4.59-1,9.33.19,13.87,1.36l12.46,3.2c2.24.57,4.78,1.1,6.73-.15A5.22,5.22,0,0,0,465.45,158.9Z" id="elmo9ta731jv" class="animable" style="transform-origin: 441.143px 158.642px;"></path></g></g><path d="M405.46,137.3s-.47,18.21,3.45,21.57,6.34,2.81,10.63,2.25,28.91-12.89,28.91-12.89l-2.61-8.81-25.56,4.68-.13-7.74Z" style="fill: rgb(255, 190, 157); transform-origin: 426.946px 148.95px;" id="elt4z5pjwv2ud" class="animable"></path><path d="M472,134.93s1.12,20.39,0,23-5.23,5.42-9.7,4.68-28.49-7.3-28.51-7.29,8.36-8.8,8.36-8.8l17.35-.38-1.12-11.22Z" style="fill: rgb(255, 190, 157); transform-origin: 453.144px 148.825px;" id="elyqv6y2v7vvi" class="animable"></path><path d="M458.34,137.3c-4.84-3.47-12.5,2.12-12.5,2.12v.93l1.92,6.32,11.7-.52S461.45,139.53,458.34,137.3Z" style="fill: rgb(255, 190, 157); transform-origin: 452.964px 141.417px;" id="elsjvlv9ga8of" class="animable"></path><path d="M459.08,146.05a18.94,18.94,0,0,1-2.82.24c-1.78.09-4.28.2-7.19.3l.13,0c-1.07.72-2.24,1.48-3.47,2.25-3.33,2.07-6.45,3.75-8.75,4.89-1.15.57-2.09,1-2.75,1.29a4.65,4.65,0,0,1-1,.4,4.58,4.58,0,0,1,1-.58l2.66-1.44c2.25-1.22,5.33-2.94,8.64-5,1.23-.76,2.4-1.51,3.48-2.22l.06,0h.07c2.9-.07,5.41-.11,7.19-.12A17.33,17.33,0,0,1,459.08,146.05Z" style="fill: rgb(235, 153, 110); transform-origin: 446.155px 150.71px;" id="eloq6z4xj9pw" class="animable"></path><path d="M458.34,134.93a13.8,13.8,0,0,1,.36,2.6c.15,1.61.33,3.83.49,6.29.05.77.1,1.51.14,2.21l-.1-.18a17.2,17.2,0,0,1,3.4,3.46,5.77,5.77,0,0,1,1,1.66,29.48,29.48,0,0,0-4.67-4.72l-.09-.07v-.12c-.05-.7-.1-1.44-.16-2.2-.16-2.46-.28-4.69-.34-6.31A13.28,13.28,0,0,1,458.34,134.93Z" style="fill: rgb(235, 153, 110); transform-origin: 460.96px 142.95px;" id="elcbko0w94us" class="animable"></path><path d="M437.49,141a24.5,24.5,0,0,1-3.39.81c-2.11.43-5,1-8.24,1.58l-5.53,1,.13-.08c-1.19,1.44-2.21,2.63-2.93,3.46a8.94,8.94,0,0,1-1.19,1.25,7.81,7.81,0,0,1,1-1.42c.66-.88,1.62-2.11,2.79-3.58l.05-.06.08,0,5.52-1c3.23-.59,6.15-1.1,8.27-1.44A22.76,22.76,0,0,1,437.49,141Z" style="fill: rgb(235, 153, 110); transform-origin: 426.915px 145.01px;" id="el2s0x6zt7p8m" class="animable"></path><path d="M420.15,136.36a14.75,14.75,0,0,1,.33,3.86,14.56,14.56,0,0,1-.2,3.88,14.94,14.94,0,0,1-.33-3.87A14.4,14.4,0,0,1,420.15,136.36Z" style="fill: rgb(235, 153, 110); transform-origin: 420.215px 140.23px;" id="elkbykw6cb9nd" class="animable"></path><path d="M418.54,121.74a68.16,68.16,0,0,1,1.08,8.34,67,67,0,0,1,.56,8.39,70.59,70.59,0,0,1-1.08-8.34A69.32,69.32,0,0,1,418.54,121.74Z" style="fill: rgb(38, 50, 56); transform-origin: 419.36px 130.105px;" id="el98nt0gfszhc" class="animable"></path><path d="M459.22,119.87a62.08,62.08,0,0,1-.13,8.18,65.11,65.11,0,0,1-.64,8.16,63,63,0,0,1,.12-8.18A66.41,66.41,0,0,1,459.22,119.87Z" style="fill: rgb(38, 50, 56); transform-origin: 458.834px 128.04px;" id="ellkweo900fjf" class="animable"></path><path d="M459.23,77.6c-1.22-1.31-2.7-2.56-3.13-4.3s.18-3.45-.67-4.87c-1-1.75-3.65-1.9-4.9-3.5-.61-.78-.82-1.81-1.42-2.59-1-1.33-2.92-1.63-4.58-1.4s-3.25.88-4.91,1.05c-2.29.23-4.68-.44-6.86.29-2.41.8-3.82,3-5.34,5.14l-2,2.48a8.21,8.21,0,0,1-1.34,1.16,16.2,16.2,0,0,0-2.55,1.75,4.09,4.09,0,0,0,.45,5.86A4.34,4.34,0,0,0,419.21,83a12.2,12.2,0,0,0,.88,2.93,4.39,4.39,0,0,1,.18,3,1.9,1.9,0,0,1-2.46,1.15,4.57,4.57,0,0,0,2.59,3,2.77,2.77,0,0,1-1.81.88c2,4.32,7.13,6.46,11.87,6.33s9.23-2.08,13.58-4l12.66-3.75c1.12-.29,1.54-1.68,1.49-2.83a9,9,0,0,1,0-3.44c.51-1.49,2.2-2.33,2.74-3.82C461.54,80.75,460.46,78.92,459.23,77.6Z" style="fill: rgb(38, 50, 56); transform-origin: 439.458px 80.5826px;" id="eldifn6grhbgs" class="animable"></path><path d="M429.39,90.28a53.43,53.43,0,0,1-2.55-8.75,18.45,18.45,0,0,1,.47-9c.15-.44,1.43-3.38,1.89-3.35s-.44,2.75-.27,3a15.69,15.69,0,0,1,2,9.07,41.18,41.18,0,0,1-1.56,9" style="fill: rgb(38, 50, 56); transform-origin: 428.738px 79.7299px;" id="elva9ix8uuhy" class="animable"></path><path d="M440.63,64.22l-.7,0c-7.61.26-11.64,6.88-11.17,14.49l.18,26.26a8.91,8.91,0,0,0,8.51,8.85h0a8.91,8.91,0,0,0,9.3-8.65c0-1.38.07-2.35.08-2.35s7.33-1,7.6-8.27c.13-3.53-.19-10.83-.56-17.44A13.62,13.62,0,0,0,440.63,64.22Z" style="fill: rgb(255, 190, 157); transform-origin: 441.591px 89.0243px;" id="eli2rdomw2rur" class="animable"></path><path d="M446.83,102.8a17.55,17.55,0,0,1-9.43-3s2.18,5.38,9.48,4.9Z" style="fill: rgb(235, 153, 110); transform-origin: 442.14px 102.265px;" id="elik8nrbiqbw" class="animable"></path><path d="M450.74,83.08a1,1,0,0,1-1,1,1,1,0,0,1-1-1,1,1,0,0,1,1-1A1,1,0,0,1,450.74,83.08Z" style="fill: rgb(38, 50, 56); transform-origin: 449.74px 83.08px;" id="ellv5w4z83dno" class="animable"></path><path d="M452.24,80.09c-.14.14-.91-.47-2-.49s-2,.51-2.08.37.08-.3.45-.56a2.85,2.85,0,0,1,1.66-.47,2.81,2.81,0,0,1,1.61.57C452.19,79.78,452.3,80,452.24,80.09Z" style="fill: rgb(38, 50, 56); transform-origin: 450.198px 79.5247px;" id="elg401346we5" class="animable"></path><path d="M440.23,83.08a1,1,0,0,1-1,1,1,1,0,0,1-1.05-1,1,1,0,0,1,1-1A1,1,0,0,1,440.23,83.08Z" style="fill: rgb(38, 50, 56); transform-origin: 439.205px 83.08px;" id="el00156dpr0m0hwg" class="animable"></path><path d="M441.24,80.27c-.13.14-.91-.47-2-.49s-1.95.51-2.07.37.07-.3.44-.56a2.88,2.88,0,0,1,1.67-.47,2.81,2.81,0,0,1,1.61.57C441.19,80,441.31,80.21,441.24,80.27Z" style="fill: rgb(38, 50, 56); transform-origin: 439.197px 79.7047px;" id="elgd7akrvtlha" class="animable"></path><path d="M445.05,89a7.16,7.16,0,0,1,1.83-.29c.29,0,.56-.07.61-.27a1.47,1.47,0,0,0-.17-.85c-.25-.7-.51-1.44-.79-2.21a36.7,36.7,0,0,1-1.76-5.77A37.64,37.64,0,0,1,447,85.24q.39,1.17.75,2.22a1.71,1.71,0,0,1,.13,1.13.71.71,0,0,1-.49.41,2.24,2.24,0,0,1-.48.06A7.87,7.87,0,0,1,445.05,89Z" style="fill: rgb(38, 50, 56); transform-origin: 446.346px 84.3496px;" id="elroobt2c7p7" class="animable"></path><path d="M441.73,89.71c.18,0,.15,1.22,1.18,2.11s2.31.79,2.32,1-.3.23-.84.23a3.11,3.11,0,0,1-1.95-.73,2.67,2.67,0,0,1-.9-1.77C441.5,90,441.65,89.7,441.73,89.71Z" style="fill: rgb(38, 50, 56); transform-origin: 443.382px 91.3799px;" id="elujykixnzhds" class="animable"></path><path d="M441.29,75.71c-.12.3-1.23.13-2.55.26s-2.39.45-2.56.18.12-.42.55-.71a4.34,4.34,0,0,1,1.91-.61,4.22,4.22,0,0,1,2,.28C441.11,75.32,441.34,75.57,441.29,75.71Z" style="fill: rgb(38, 50, 56); transform-origin: 438.714px 75.5315px;" id="elpoq5tzmqos" class="animable"></path><path d="M451.87,76.34c-.21.25-1,0-1.9-.07s-1.72.13-1.9-.14.06-.38.41-.62a2.65,2.65,0,0,1,1.55-.38,2.61,2.61,0,0,1,1.5.55C451.86,76,452,76.22,451.87,76.34Z" style="fill: rgb(38, 50, 56); transform-origin: 449.963px 75.7865px;" id="el2asgim2jn52" class="animable"></path><path d="M429.22,84.12c-.13-.05-5-1.61-4.94,3.4s5,3.94,5,3.79S429.22,84.12,429.22,84.12Z" style="fill: rgb(255, 190, 157); transform-origin: 426.78px 87.6797px;" id="elnc427vz2yf" class="animable"></path><path d="M427.79,89.43s-.09.06-.24.13a.93.93,0,0,1-.65,0,2.16,2.16,0,0,1-1-1.93,2.94,2.94,0,0,1,.24-1.25,1,1,0,0,1,.65-.68.44.44,0,0,1,.51.24c.07.14,0,.24.07.25s.1-.09.06-.3a.58.58,0,0,0-.2-.31.69.69,0,0,0-.48-.12,1.21,1.21,0,0,0-.9.78,3,3,0,0,0-.3,1.4,2.26,2.26,0,0,0,1.29,2.15.92.92,0,0,0,.79-.14C427.78,89.55,427.8,89.44,427.79,89.43Z" style="fill: rgb(235, 153, 110); transform-origin: 426.67px 87.6398px;" id="elwz9kqg9zrr" class="animable"></path><path d="M450.51,68.85c.8-.46-1.66-3-3.66-3.91-3-1.32-7.62-2.09-10.38-1.26-3.31,1-6.05,2.71-7.68,5.77a19.71,19.71,0,0,0-2,10.09,5.93,5.93,0,0,0,.75,3c.71,1.1,2.06,1.77,2,3.3a2.05,2.05,0,0,0,.54,1.52c.93,1,2,0,2.53-.9,1.07-2,1.15-4.32,1.21-6.57a14.26,14.26,0,0,0-.39-4.75c-.25-.84-.66-1.62-.87-2.46a3.05,3.05,0,0,1,.31-2.51,4.83,4.83,0,0,1,.4-.41,5.19,5.19,0,0,1,5.15-1.07c2.83,1,7.65,2.36,8.89,1.39a7.83,7.83,0,0,0,2.2-2.31Z" style="fill: rgb(38, 50, 56); transform-origin: 438.704px 75.5563px;" id="el0b2q1srkjwzs" class="animable"></path><path d="M436.72,63a10.88,10.88,0,0,1,8.44.33,5.7,5.7,0,0,1,3.07,3.27,3.3,3.3,0,0,1-1.58,3.92l-.1.06c-2.11.75-3.5.49-5.64-.21-1.8-.6-3.4-1.68-5.2-2.26a10.11,10.11,0,0,0-5.94-.08A16.46,16.46,0,0,1,436.72,63Z" style="fill: rgb(38, 50, 56); transform-origin: 439.08px 66.6685px;" id="elnhw6buleq4" class="animable"></path></g><g id="freepik--character-1--inject-62" class="animable animator-hidden" style="transform-origin: 215.355px 289.187px;"><path d="M195.79,429.21l-12.61,20.3s16.4,19.64,14.43,23.62l-40.24-23,18.36-32.44Z" style="fill: rgb(69, 90, 100); transform-origin: 177.572px 445.41px;" id="eliyxop018qvs" class="animable"></path><path d="M171.74,440.64a1.89,1.89,0,0,0-2.21,1.23,1.81,1.81,0,0,0,1.19,2.2,2,2,0,0,0,2.33-1.31,1.89,1.89,0,0,0-1.49-2.15" style="fill: rgb(224, 224, 224); transform-origin: 171.27px 442.355px;" id="el3zyjoepgpqm" class="animable"></path><g id="el9ch3lrk2a4e"><g style="opacity: 0.6; transform-origin: 177.663px 460.03px;" class="animable" id="elr8nbi69ck4"><path d="M157.37,450.09l2-3.2,37.84,23.28s1.35,1.81.42,3Z" style="fill: rgb(255, 255, 255); transform-origin: 177.663px 460.03px;" id="elx6jo1lkgjxi" class="animable"></path></g></g><path d="M184,449.68c-.12.19-1.15-.28-2.48-.2s-2.32.61-2.45.43.8-1.15,2.41-1.22S184.09,449.52,184,449.68Z" style="fill: rgb(38, 50, 56); transform-origin: 181.532px 449.317px;" id="el48nywdnwgnv" class="animable"></path><path d="M187.17,453.84c-.06.22-1.11.07-2.25.51s-1.84,1.22-2,1.1.32-1.3,1.75-1.83S187.27,453.65,187.17,453.84Z" style="fill: rgb(38, 50, 56); transform-origin: 185.033px 454.43px;" id="elfq15azm8m17" class="animable"></path><path d="M186.67,460.27c-.2-.07.09-1.2,1.21-2s2.29-.69,2.28-.48-.91.46-1.82,1.12S186.88,460.36,186.67,460.27Z" style="fill: rgb(38, 50, 56); transform-origin: 188.386px 458.957px;" id="elapo8sqcabv" class="animable"></path><path d="M186.31,444.74c-.19.13-.93-.66-2.09-1.22s-2.22-.71-2.22-.93,1.23-.45,2.58.22S186.49,444.64,186.31,444.74Z" style="fill: rgb(38, 50, 56); transform-origin: 184.171px 443.56px;" id="elcd3ahrhybln" class="animable"></path><path d="M194,437.55l-1.36,23.86s23.8,9.39,24,13.83l-46.35-1,.59-37.26Z" style="fill: rgb(69, 90, 100); transform-origin: 193.465px 456.11px;" id="el2b2n1fjm3ek" class="animable"></path><path d="M178.39,459.1a1.91,1.91,0,0,0-1.36,2.13,1.83,1.83,0,0,0,2.11,1.36,2,2,0,0,0,1.42-2.26,1.88,1.88,0,0,0-2.34-1.18" style="fill: rgb(224, 224, 224); transform-origin: 178.798px 460.842px;" id="elk973gfn4zqb" class="animable"></path><g id="el93gt7v2wjjk"><g style="opacity: 0.6; transform-origin: 193.483px 472.875px;" class="animable" id="elrmmxacqpl2c"><path d="M170.3,474.26l.21-3.75,44.36,2.34s2,.94,1.78,2.39Z" style="fill: rgb(255, 255, 255); transform-origin: 193.483px 472.875px;" id="el3qshdw6rdld" class="animable"></path></g></g><path d="M193.44,461.19c0,.23-1.15.31-2.28,1s-1.74,1.64-1.95,1.55.16-1.4,1.54-2.22S193.49,461,193.44,461.19Z" style="fill: rgb(38, 50, 56); transform-origin: 191.298px 462.361px;" id="el2jkjphgd63v" class="animable"></path><path d="M198.26,463.3c0,.22-.94.59-1.73,1.53s-1,1.95-1.26,1.93-.34-1.29.66-2.45S198.26,463.09,198.26,463.3Z" style="fill: rgb(38, 50, 56); transform-origin: 196.68px 464.983px;" id="elat2ukxmijes" class="animable"></path><path d="M200.9,469.18c-.21,0-.5-1.09.11-2.32s1.67-1.7,1.76-1.51-.57.84-1.06,1.86S201.12,469.16,200.9,469.18Z" style="fill: rgb(38, 50, 56); transform-origin: 201.711px 467.245px;" id="eltu8hqznfoo" class="animable"></path><path d="M193.14,455.72c-.1.2-1.13-.13-2.41-.07s-2.29.44-2.4.24.86-1,2.37-1S193.26,455.54,193.14,455.72Z" style="fill: rgb(38, 50, 56); transform-origin: 190.735px 455.419px;" id="elmlu08wp3eu" class="animable"></path><path d="M233.85,285.26s-3.11,75.59-5,82.62-41.16,78.89-41.16,78.89L164,435.15l31.4-75.89V286Z" style="fill: rgb(38, 50, 56); transform-origin: 198.925px 366.015px;" id="el2rhzq0861x5" class="animable"></path><path d="M173.14,285.26s-2.49,18.39-1.21,20.31,3.52,8,3.52,8l-1.93,59.1-5.74,86.89h27.6l11.85-76.62s4.15-7,5.75-13.1,11-66.45,11-66.45V280.1Z" style="fill: rgb(38, 50, 56); transform-origin: 195.88px 369.83px;" id="elv76q2wdgg5e" class="animable"></path><path d="M227.05,288.49a2.19,2.19,0,0,1,0,.45c0,.32-.11.75-.18,1.3-.18,1.18-.44,2.87-.76,5l-2.9,18.46c-1.24,7.8-2.72,17.08-4.36,27.37-.84,5.15-1.67,10.56-2.63,16.16a98,98,0,0,1-4.3,17.06c-2.08,5.67-5,10.84-6,16.43-1.19,5.53-2,10.95-2.82,16.1-1.56,10.31-2.82,19.62-3.89,27.44s-1.93,14.14-2.59,18.5c-.33,2.19-.59,3.88-.8,5-.1.55-.19,1-.25,1.3a2.06,2.06,0,0,1-.1.44,3.09,3.09,0,0,1,.05-.45c0-.32.11-.75.18-1.31.17-1.18.4-2.87.7-5,.57-4.4,1.39-10.72,2.41-18.53s2.23-17.14,3.76-27.46c.8-5.16,1.62-10.58,2.8-16.14,1-5.68,4-10.9,6.06-16.51a97.85,97.85,0,0,0,4.29-17c1-5.59,1.81-11,2.66-16.14,1.69-10.29,3.21-19.56,4.48-27.35s2.35-14.05,3.08-18.44l.86-5,.24-1.3A2.49,2.49,0,0,1,227.05,288.49Z" style="fill: rgb(69, 90, 100); transform-origin: 211.266px 373.995px;" id="elb6szajr4p4t" class="animable"></path><path d="M170.86,412.88a10.71,10.71,0,0,1,0,1.83c0,1.18-.12,2.87-.24,5-.23,4.2-.65,10-1.14,16.39s-.9,12.19-1.17,16.38c-.14,2-.25,3.7-.33,5a10.56,10.56,0,0,1-.19,1.82,10.81,10.81,0,0,1,0-1.83c0-1.17.06-2.88.14-5,.17-4.2.53-10,1-16.4s1-12.09,1.31-16.37c.17-2,.31-3.69.42-5A13.83,13.83,0,0,1,170.86,412.88Z" style="fill: rgb(69, 90, 100); transform-origin: 169.325px 436.09px;" id="elhzk6ccqfv2l" class="animable"></path><path d="M233.56,127.6c-1.79-1.93-4-3.75-4.59-6.3-.57-2.36.26-5-1-7.13-1.52-2.56-5.33-2.77-7.16-5.12-.89-1.13-1.2-2.64-2.08-3.78-1.49-2-4.28-2.39-6.71-2s-4.75,1.29-7.18,1.54c-3.35.34-6.85-.65-10,.42-3.52,1.17-5.59,4.39-7.81,7.52l-2.9,3.63a12.58,12.58,0,0,1-2,1.7,23.76,23.76,0,0,0-3.74,2.56,6,6,0,0,0,.66,8.56,6.38,6.38,0,0,0-4.08,6.38,18.18,18.18,0,0,0,1.29,4.28,6.35,6.35,0,0,1,.25,4.39c-.55,1.39-2.27,2.38-3.59,1.69a6.73,6.73,0,0,0,3.78,4.35,4,4,0,0,1-2.64,1.28c2.92,6.32,10.43,9.45,17.37,9.26s13.51-3.05,19.86-5.86l18.54-5.48c1.63-.43,2.24-2.46,2.17-4.14s-.57-3.43,0-5c.76-2.19,3.23-3.42,4-5.6C236.93,132.2,235.35,129.53,233.56,127.6Z" style="fill: rgb(38, 50, 56); transform-origin: 204.598px 131.986px;" id="elw3kqpcrk2f" class="animable"></path><path d="M189.89,146.15a77.42,77.42,0,0,1-3.72-12.8,27.05,27.05,0,0,1,.68-13.2c.21-.63,2.09-4.93,2.76-4.89.48,0-.64,4-.38,4.44A22.94,22.94,0,0,1,192.17,133a60.35,60.35,0,0,1-2.28,13.18" style="fill: rgb(38, 50, 56); transform-origin: 188.953px 130.72px;" id="elg51l3ztmmh" class="animable"></path><path d="M206.34,108l-1,0c-11.13.38-17,10.06-16.34,21.2l.27,38.42a13.06,13.06,0,0,0,12.44,13h0a13,13,0,0,0,13.61-12.67c.06-2,.11-3.43.12-3.43s10.72-1.4,11.12-12.11c.19-5.17-.28-15.85-.82-25.5A19.92,19.92,0,0,0,206.34,108Z" style="fill: rgb(255, 190, 157); transform-origin: 207.776px 144.317px;" id="elrjpbo1gh4xe" class="animable"></path><path d="M215.41,164.47a25.83,25.83,0,0,1-13.8-4.47s3,7.91,13.7,7.21Z" style="fill: rgb(235, 153, 110); transform-origin: 208.51px 163.627px;" id="ela5t7404s4fs" class="animable"></path><path d="M223.06,135.61a1.53,1.53,0,0,1-1.51,1.51A1.47,1.47,0,0,1,220,135.7a1.54,1.54,0,0,1,1.51-1.51A1.47,1.47,0,0,1,223.06,135.61Z" style="fill: rgb(38, 50, 56); transform-origin: 221.53px 135.655px;" id="eljy1psn8xwne" class="animable"></path><path d="M223.32,131.24c-.19.2-1.33-.69-3-.73s-2.86.76-3,.55.11-.44.65-.81a4.13,4.13,0,0,1,2.43-.69,4,4,0,0,1,2.36.83C223.26,130.79,223.42,131.15,223.32,131.24Z" style="fill: rgb(38, 50, 56); transform-origin: 220.315px 130.413px;" id="elcsozxmf5bs" class="animable"></path><path d="M207.28,135.61a1.53,1.53,0,0,1-1.51,1.51,1.47,1.47,0,0,1-1.54-1.42,1.54,1.54,0,0,1,1.51-1.51A1.47,1.47,0,0,1,207.28,135.61Z" style="fill: rgb(38, 50, 56); transform-origin: 205.755px 135.655px;" id="elqhk8j5lnojb" class="animable"></path><path d="M207.23,131.51c-.19.19-1.33-.69-3-.73s-2.86.75-3,.55.11-.45.65-.82a4.14,4.14,0,0,1,2.44-.68,4,4,0,0,1,2.35.82C207.17,131.05,207.33,131.42,207.23,131.51Z" style="fill: rgb(38, 50, 56); transform-origin: 204.225px 130.682px;" id="elza87r2dp5uh" class="animable"></path><path d="M212.81,144.3a10.13,10.13,0,0,1,2.67-.42c.42,0,.82-.11.9-.39a2.11,2.11,0,0,0-.25-1.25c-.37-1-.75-2.11-1.16-3.23-1.61-4.6-2.76-8.38-2.57-8.44s1.63,3.61,3.24,8.21c.39,1.13.76,2.21,1.11,3.25a2.46,2.46,0,0,1,.18,1.65,1.1,1.1,0,0,1-.71.6,3.27,3.27,0,0,1-.71.08A10.84,10.84,0,0,1,212.81,144.3Z" style="fill: rgb(38, 50, 56); transform-origin: 214.689px 137.493px;" id="elnty8ofu19g" class="animable"></path><path d="M208,145.31c.27,0,.23,1.78,1.72,3.09s3.39,1.15,3.4,1.4-.43.34-1.23.34a4.43,4.43,0,0,1-2.85-1.07,3.86,3.86,0,0,1-1.32-2.58C207.62,145.74,207.83,145.3,208,145.31Z" style="fill: rgb(38, 50, 56); transform-origin: 210.407px 147.725px;" id="el3j3tniachyz" class="animable"></path><path d="M207.31,124.83c-.17.44-1.81.19-3.74.37s-3.5.67-3.74.27c-.11-.2.17-.61.81-1a6.15,6.15,0,0,1,2.79-.9,6.28,6.28,0,0,1,2.91.41C207,124.26,207.38,124.62,207.31,124.83Z" style="fill: rgb(38, 50, 56); transform-origin: 203.562px 124.582px;" id="el4xtdmtpa2iu" class="animable"></path><path d="M222.78,125.76c-.3.36-1.42-.05-2.78-.11s-2.51.19-2.77-.21c-.11-.19.08-.56.59-.9a4,4,0,0,1,4.47.25C222.76,125.19,222.91,125.58,222.78,125.76Z" style="fill: rgb(38, 50, 56); transform-origin: 220.012px 124.941px;" id="elqx42hflrin9" class="animable"></path><path d="M189.64,137.14c-.18-.08-7.28-2.36-7.23,5s7.38,5.76,7.39,5.55S189.64,137.14,189.64,137.14Z" style="fill: rgb(255, 190, 157); transform-origin: 186.105px 142.362px;" id="el51qi75kdo8" class="animable"></path><path d="M187.55,144.9s-.13.09-.35.19a1.25,1.25,0,0,1-.95,0,3.17,3.17,0,0,1-1.47-2.83,4.18,4.18,0,0,1,.34-1.83,1.47,1.47,0,0,1,.95-1,.65.65,0,0,1,.75.34c.1.21.06.35.1.37s.15-.13.09-.43a.81.81,0,0,0-.29-.46,1,1,0,0,0-.7-.18,1.8,1.8,0,0,0-1.33,1.15,4.34,4.34,0,0,0-.42,2c0,1.48.82,2.85,1.88,3.15a1.38,1.38,0,0,0,1.16-.2C187.53,145.08,187.57,144.91,187.55,144.9Z" style="fill: rgb(235, 153, 110); transform-origin: 185.911px 142.241px;" id="elj8hkufyiz5o" class="animable"></path><path d="M220.8,114.8c1.17-.68-2.44-4.46-5.37-5.74-4.42-1.92-11.14-3-15.17-1.83-4.85,1.46-8.87,4-11.24,8.45a28.74,28.74,0,0,0-3,14.76,8.66,8.66,0,0,0,1.1,4.46c1,1.6,3,2.59,3,4.82a3.12,3.12,0,0,0,.8,2.23c1.36,1.4,3,0,3.7-1.32,1.56-2.89,1.69-6.32,1.78-9.61a21.36,21.36,0,0,0-.58-7c-.37-1.21-1-2.36-1.27-3.59a4.4,4.4,0,0,1,.46-3.67,5,5,0,0,1,.58-.61,7.6,7.6,0,0,1,7.53-1.56c4.14,1.39,11.2,3.46,13,2a11.32,11.32,0,0,0,3.22-3.38Z" style="fill: rgb(38, 50, 56); transform-origin: 203.493px 124.639px;" id="elva4w72s8q79" class="animable"></path><path d="M200.62,106.23a16,16,0,0,1,12.35.48,8.38,8.38,0,0,1,4.48,4.8c.65,2.15-.23,4.84-2.3,5.72l-.14.09c-3.1,1.11-5.13.72-8.26-.31-2.63-.87-5-2.45-7.61-3.3a14.79,14.79,0,0,0-8.69-.12A24.21,24.21,0,0,1,200.62,106.23Z" style="fill: rgb(38, 50, 56); transform-origin: 204.055px 111.603px;" id="els9xeuxifkc" class="animable"></path><path d="M174.11,228.07c-.43,9-3,60.35-3,60.35a87.3,87.3,0,0,0,36.51,3.79c19.57-2.4,27.87,1.34,27.87,1.34L229.76,204,215.1,169.78s-20.45-2.78-25.86-2.17a45.28,45.28,0,0,0-5.52,4.08c-5.49,6.26-9.23,19.59-9.43,30.71Z" style="fill: #F03C81; transform-origin: 203.3px 230.536px;" id="elc91gj5ac22m" class="animable"></path><g id="eljdni74620u"><g style="opacity: 0.3; transform-origin: 210.47px 216.957px;" class="animable" id="elhmlypzinkri"><path d="M205.07,206.83c-5.41-4.64-12.75-2.61-16.45-8.7a178.66,178.66,0,0,0,15,29.62,3.49,3.49,0,0,0,1.46,1.51c1.43.58,2.81-.84,4.11-1.67,2.42-1.55,5.66-1.15,8.25.12s4.71,3.26,7,5,5,3.16,7.88,3.07A188.1,188.1,0,0,0,205.07,206.83Z" id="el5rkj06c5137" class="animable" style="transform-origin: 210.47px 216.957px;"></path></g></g><path d="M227,201.41,240.74,214l14.87-33.83,12.57,4.21s-13.5,50-17,53.86c-4.79,5.23-12.68,4.52-16.81.85-4.74-4.21-22.46-21.7-22.46-21.7Z" style="fill: rgb(255, 190, 157); transform-origin: 240.045px 211.086px;" id="eloh1c1qsmnif" class="animable"></path><path d="M240.74,222.31a12.94,12.94,0,0,1-.4-4.25,13.13,13.13,0,0,1,.5-4.25,26.25,26.25,0,0,1,0,4.25A28.56,28.56,0,0,1,240.74,222.31Z" style="fill: rgb(235, 153, 110); transform-origin: 240.616px 218.06px;" id="elvr82d2yymir" class="animable"></path><path d="M254.82,183.54l2.62-16.91a2.28,2.28,0,0,1,.84-1.43l1.12-.89s-.14-.23,1.86-2.84,4.85-2.58,5.56-1.09c0,0,3.73-1.93,4.55.75.48,1.57-1,3.74-1,3.74s3.46,1.1,2.1,5.37c0,0,1.86,0,.14,4.63-.74,2-5.91,12.38-5.91,12.38Z" style="fill: rgb(255, 190, 157); transform-origin: 264.08px 173.306px;" id="elzq9sbhf95kb" class="animable"></path><path d="M245.24,170.55h0a1.3,1.3,0,0,0,1.76.81l17.37-7.44,2.29-3.44L246,169A1.3,1.3,0,0,0,245.24,170.55Z" style="fill: rgb(38, 50, 56); transform-origin: 255.926px 165.974px;" id="el3g7gk9kb628" class="animable"></path><path d="M271.17,163.5a10,10,0,0,1-1.35,2.94c-.89,1.57-2.05,2.56-2.15,2.43s.83-1.17,1.7-2.7A10.73,10.73,0,0,1,271.17,163.5Z" style="fill: rgb(235, 153, 110); transform-origin: 269.416px 166.191px;" id="el7j44264nkmo" class="animable"></path><path d="M262.08,167.48a17.83,17.83,0,0,1,2.2-3.73,18.4,18.4,0,0,1,2.62-3.43,18,18,0,0,1-2.19,3.73A18.11,18.11,0,0,1,262.08,167.48Z" style="fill: rgb(235, 153, 110); transform-origin: 264.49px 163.9px;" id="elgh5v412kwy" class="animable"></path><path d="M271.18,172.17c-.1-.11.25-.61.62-1.25s.66-1.18.8-1.14.07.71-.35,1.41S271.28,172.27,271.18,172.17Z" style="fill: rgb(235, 153, 110); transform-origin: 271.914px 170.982px;" id="elw26df5jpndh" class="animable"></path><path d="M228.7,199.74l-22.35,23.53c-8.16-7.79-15.59-20.21-19.4-30.58a21.7,21.7,0,0,1-.74-11.73c.95-3.44,2-4.43,4.38-6.44,0,0,7.21-5.76,17.23,3.14C213.91,183.06,228.7,199.74,228.7,199.74Z" style="fill: #F03C81; transform-origin: 207.214px 197.978px;" id="el9umx58svgjb" class="animable"></path><path d="M228.7,199.74a1.82,1.82,0,0,1-.26-.25l-.71-.76-2.73-3c-2.37-2.57-5.78-6.3-10.1-10.82-2.17-2.24-4.54-4.71-7.26-7.16a23.63,23.63,0,0,0-4.63-3.2,13.94,13.94,0,0,0-5.66-1.62,10.72,10.72,0,0,0-6,1.34,11.19,11.19,0,0,0-4.25,4.73,15.09,15.09,0,0,0-.93,3.2,18.17,18.17,0,0,0-.22,3.39,22.39,22.39,0,0,0,1.17,6.85,92.33,92.33,0,0,0,8.68,17.27,73.76,73.76,0,0,0,10.67,13.36h-.31l16.25-17,4.59-4.75,1.23-1.25.44-.43a4.82,4.82,0,0,1-.38.43l-1.15,1.26-4.48,4.79c-3.91,4.17-9.48,10.09-16.18,17.2l-.15.16-.16-.15A73.71,73.71,0,0,1,195.41,210a91.84,91.84,0,0,1-8.75-17.36,22.7,22.7,0,0,1-1.2-7,19.38,19.38,0,0,1,.23-3.49,16.16,16.16,0,0,1,1-3.31,8.51,8.51,0,0,1,1.91-2.84c.39-.4.81-.77,1.22-1.12l.63-.54a8.06,8.06,0,0,1,.72-.47,11.23,11.23,0,0,1,6.24-1.38,14.66,14.66,0,0,1,5.84,1.69,24.38,24.38,0,0,1,4.71,3.28c2.72,2.49,5.08,5,7.23,7.24,4.29,4.55,7.67,8.32,10,10.93,1.14,1.3,2,2.31,2.65,3,.29.33.51.6.68.8A1.86,1.86,0,0,1,228.7,199.74Z" style="fill: rgb(38, 50, 56); transform-origin: 207.077px 197.971px;" id="elcbqztx4b2nh" class="animable"></path></g><defs>     <filter id="active" height="200%">         <feMorphology in="SourceAlpha" result="DILATED" operator="dilate" radius="2"></feMorphology>                <feFlood flood-color="#32DFEC" flood-opacity="1" result="PINK"></feFlood>        <feComposite in="PINK" in2="DILATED" operator="in" result="OUTLINE"></feComposite>        <feMerge>            <feMergeNode in="OUTLINE"></feMergeNode>            <feMergeNode in="SourceGraphic"></feMergeNode>        </feMerge>    </filter>    <filter id="hover" height="200%">        <feMorphology in="SourceAlpha" result="DILATED" operator="dilate" radius="2"></feMorphology>                <feFlood flood-color="#ff0000" flood-opacity="0.5" result="PINK"></feFlood>        <feComposite in="PINK" in2="DILATED" operator="in" result="OUTLINE"></feComposite>        <feMerge>            <feMergeNode in="OUTLINE"></feMergeNode>            <feMergeNode in="SourceGraphic"></feMergeNode>        </feMerge>            <feColorMatrix type="matrix" values="0   0   0   0   0                0   1   0   0   0                0   0   0   0   0                0   0   0   1   0 "></feColorMatrix>    </filter></defs></svg>